<svg xmlns="http://www.w3.org/2000/svg" xmlns:xlink="http://www.w3.org/1999/xlink" width="500" zoomAndPan="magnify" viewBox="0 0 375 374.999991" height="500" preserveAspectRatio="xMidYMid meet" version="1.0"><defs><g/><clipPath id="a066ca5bc2"><path d="M 150 113 L 225.9375 113 L 225.9375 262 L 150 262 Z M 150 113 " clip-rule="nonzero"/></clipPath><clipPath id="99f9b177c0"><path d="M 149.4375 112.5 L 225.9375 112.5 L 225.9375 262.5 L 149.4375 262.5 Z M 149.4375 112.5 " clip-rule="nonzero"/></clipPath><clipPath id="59e6839c63"><path d="M 149.4375 112.5 L 225.9375 112.5 L 225.9375 138 L 149.4375 138 Z M 149.4375 112.5 " clip-rule="nonzero"/></clipPath><clipPath id="600a6cdef3"><path d="M 149.4375 235 L 225.9375 235 L 225.9375 262.5 L 149.4375 262.5 Z M 149.4375 235 " clip-rule="nonzero"/></clipPath><clipPath id="763aa1a734"><path d="M 149.4375 229 L 225.9375 229 L 225.9375 262.5 L 149.4375 262.5 Z M 149.4375 229 " clip-rule="nonzero"/></clipPath><clipPath id="e08849860b"><path d="M 149.4375 234 L 225.9375 234 L 225.9375 262.5 L 149.4375 262.5 Z M 149.4375 234 " clip-rule="nonzero"/></clipPath><clipPath id="edeb5940cf"><path d="M 149.4375 129 L 225.9375 129 L 225.9375 224 L 149.4375 224 Z M 149.4375 129 " clip-rule="nonzero"/></clipPath><clipPath id="950f1ed5d3"><path d="M 149.4375 120 L 225.9375 120 L 225.9375 233 L 149.4375 233 Z M 149.4375 120 " clip-rule="nonzero"/></clipPath><clipPath id="0e8e87dbd5"><path d="M 149.4375 227 L 171 227 L 171 262.5 L 149.4375 262.5 Z M 149.4375 227 " clip-rule="nonzero"/></clipPath><clipPath id="f7cd7165c5"><path d="M 149.4375 227 L 225.9375 227 L 225.9375 262.5 L 149.4375 262.5 Z M 149.4375 227 " clip-rule="nonzero"/></clipPath><clipPath id="6a0d9035ec"><path d="M 149.4375 112.5 L 225.9375 112.5 L 225.9375 138 L 149.4375 138 Z M 149.4375 112.5 " clip-rule="nonzero"/></clipPath><clipPath id="7fc0aeede0"><path d="M 149.4375 234 L 225.9375 234 L 225.9375 262.5 L 149.4375 262.5 Z M 149.4375 234 " clip-rule="nonzero"/></clipPath><clipPath id="66719fa666"><rect x="0" width="49" y="0" height="25"/></clipPath></defs><rect x="-37.5" width="450" fill="#ffffff" y="-37.499999" height="449.999989" fill-opacity="1"/><rect x="-37.5" width="450" fill="#ffffff" y="-37.499999" height="449.999989" fill-opacity="1"/><g clip-path="url(#a066ca5bc2)"><path fill="#016ea7" d="M 224.949219 133.625 L 220.835938 127.152344 C 218.699219 123.453125 216.253906 119.628906 217.839844 117.640625 C 217.847656 117.628906 217.851562 117.625 217.855469 117.613281 C 218.589844 116.464844 217.800781 114.9375 216.445312 114.777344 C 210.972656 114.148438 205.46875 113.75 199.964844 113.621094 C 186.335938 113.304688 172.445312 113.222656 158.886719 114.777344 C 157.527344 114.933594 156.742188 116.457031 157.472656 117.613281 C 157.480469 117.625 157.484375 117.628906 157.488281 117.640625 C 159.078125 119.628906 156.628906 123.453125 154.496094 127.152344 L 150.382812 133.625 C 150.179688 133.941406 150.082031 134.300781 150.082031 134.675781 L 151.347656 246.898438 C 151.355469 247.28125 151.464844 247.660156 151.691406 247.972656 C 153.945312 251.136719 157.441406 253.425781 160.484375 254.15625 C 160.925781 254.464844 161.167969 254.828125 161.234375 255.234375 C 161.34375 255.941406 161.726562 256.585938 162.390625 256.867188 C 167.023438 258.820312 171.902344 260.25 176.890625 260.929688 C 183.71875 261.855469 191.621094 261.855469 198.449219 260.929688 C 203.441406 260.25 208.320312 258.824219 212.949219 256.867188 C 213.617188 256.589844 213.996094 255.945312 214.109375 255.234375 C 214.167969 254.828125 214.414062 254.464844 214.855469 254.15625 C 217.902344 253.425781 221.394531 251.136719 223.652344 247.972656 C 223.875 247.660156 223.988281 247.28125 223.992188 246.898438 L 225.261719 134.675781 C 225.25 134.300781 225.144531 133.933594 224.949219 133.625 Z M 224.949219 133.625 " fill-opacity="1" fill-rule="nonzero"/></g><g clip-path="url(#99f9b177c0)"><path stroke-linecap="butt" transform="matrix(0.558802, 0, 0, 0.556063, 103.839254, 104.118363)" fill="none" stroke-linejoin="miter" d="M 216.731455 53.0635 L 209.370562 41.423346 C 205.546813 34.770826 201.170822 27.893511 204.008925 24.31787 C 204.022905 24.296795 204.029896 24.28977 204.036886 24.268696 C 205.351082 22.203394 203.939021 19.456683 201.513351 19.168665 C 191.719799 18.037666 181.870324 17.321133 172.020849 17.089313 C 147.631339 16.520301 122.773472 16.37278 98.509789 19.168665 C 96.077129 19.449658 94.672059 22.189344 95.979264 24.268696 C 95.993245 24.28977 96.000235 24.296795 96.007225 24.31787 C 98.852319 27.893511 94.469337 34.770826 90.652578 41.423346 L 83.291685 53.0635 C 82.928185 53.632512 82.753425 54.278797 82.753425 54.953181 L 85.018315 256.769703 C 85.032295 257.458137 85.228027 258.139546 85.63347 258.701533 C 89.666931 264.39165 95.923341 268.508204 101.368863 269.821849 C 102.158778 270.376811 102.592183 271.030121 102.71102 271.760704 C 102.906751 273.032199 103.591811 274.191297 104.780179 274.697085 C 113.070795 278.209503 121.801806 280.780593 130.728548 282.002915 C 142.94777 283.667801 157.089351 283.667801 169.308573 282.002915 C 178.242306 280.780593 186.973317 278.216528 195.256942 274.697085 C 196.452301 274.198322 197.13037 273.039224 197.333091 271.760704 C 197.437947 271.030121 197.878343 270.376811 198.668258 269.821849 C 204.120771 268.508204 210.37019 264.39165 214.410642 258.701533 C 214.809095 258.139546 215.011816 257.458137 215.018807 256.769703 L 217.290687 54.953181 C 217.269716 54.278797 217.080975 53.618462 216.731455 53.0635 Z M 216.731455 53.0635 " stroke="#010101" stroke-width="2.382" stroke-opacity="1" stroke-miterlimit="10"/></g><path fill="#070707" d="M 174.953125 135.863281 C 182.460938 135.164062 190.019531 135.261719 197.515625 136.019531 C 190.046875 137.09375 182.414062 136.980469 174.953125 135.863281 Z M 174.953125 135.863281 " fill-opacity="1" fill-rule="nonzero"/><g clip-path="url(#59e6839c63)"><path stroke-linecap="butt" transform="matrix(0.558802, 0, 0, 0.556063, 103.839254, 104.118363)" fill="none" stroke-linejoin="miter" d="M 96.888016 26.741438 C 95.252262 24.802583 200.527705 21.09347 203.107163 26.741438 " stroke="#231f20" stroke-width="2.382" stroke-opacity="1" stroke-miterlimit="10"/></g><g clip-path="url(#600a6cdef3)"><path stroke-linecap="butt" transform="matrix(0.558802, 0, 0, 0.556063, 103.839254, 104.118363)" fill="none" stroke-linejoin="miter" d="M 101.361873 269.821849 C 131.029136 278.026858 163.198962 278.792565 198.647287 269.821849 " stroke="#010101" stroke-width="2.382" stroke-opacity="1" stroke-miterlimit="10"/></g><g clip-path="url(#763aa1a734)"><path stroke-linecap="butt" transform="matrix(0.558802, 0, 0, 0.556063, 103.839254, 104.118363)" fill="none" stroke-linejoin="miter" d="M 85.619489 258.701533 C 129.498238 269.611104 172.468234 270.116892 214.38268 258.701533 " stroke="#010101" stroke-width="2.382" stroke-opacity="1" stroke-miterlimit="10"/></g><g clip-path="url(#e08849860b)"><path stroke-linecap="butt" transform="matrix(0.558802, 0, 0, 0.556063, 103.839254, 104.118363)" fill="none" stroke-linejoin="miter" d="M 101.66246 268.697875 C 131.329723 276.909909 163.499549 277.668591 198.947874 268.697875 " stroke="#010101" stroke-width="2.382" stroke-opacity="1" stroke-miterlimit="10"/></g><path fill="#ffffff" d="M 215.804688 176.234375 C 215.804688 177.152344 215.761719 178.070312 215.671875 178.984375 C 215.578125 179.902344 215.445312 180.808594 215.265625 181.710938 C 215.085938 182.613281 214.859375 183.503906 214.589844 184.382812 C 214.324219 185.261719 214.011719 186.125 213.660156 186.976562 C 213.304688 187.824219 212.910156 188.65625 212.476562 189.464844 C 212.039062 190.277344 211.566406 191.066406 211.050781 191.828125 C 210.539062 192.59375 209.988281 193.332031 209.402344 194.042969 C 208.816406 194.753906 208.199219 195.433594 207.542969 196.082031 C 206.890625 196.734375 206.207031 197.347656 205.492188 197.933594 C 204.777344 198.515625 204.039062 199.0625 203.269531 199.574219 C 202.5 200.085938 201.710938 200.554688 200.894531 200.988281 C 200.082031 201.421875 199.246094 201.816406 198.394531 202.167969 C 197.539062 202.519531 196.671875 202.828125 195.785156 203.09375 C 194.902344 203.363281 194.007812 203.585938 193.101562 203.765625 C 192.195312 203.945312 191.28125 204.078125 190.363281 204.167969 C 189.445312 204.257812 188.523438 204.304688 187.597656 204.304688 C 186.675781 204.304688 185.753906 204.257812 184.832031 204.167969 C 183.914062 204.078125 183 203.945312 182.09375 203.765625 C 181.1875 203.585938 180.292969 203.363281 179.410156 203.09375 C 178.527344 202.828125 177.65625 202.519531 176.804688 202.167969 C 175.949219 201.816406 175.117188 201.421875 174.300781 200.988281 C 173.484375 200.554688 172.695312 200.085938 171.925781 199.574219 C 171.160156 199.0625 170.417969 198.515625 169.703125 197.933594 C 168.988281 197.347656 168.304688 196.734375 167.652344 196.082031 C 167 195.433594 166.378906 194.753906 165.792969 194.042969 C 165.207031 193.332031 164.65625 192.59375 164.144531 191.828125 C 163.628906 191.066406 163.15625 190.277344 162.71875 189.464844 C 162.285156 188.65625 161.890625 187.824219 161.535156 186.976562 C 161.183594 186.125 160.871094 185.261719 160.605469 184.382812 C 160.335938 183.503906 160.113281 182.613281 159.933594 181.710938 C 159.75 180.808594 159.617188 179.902344 159.527344 178.984375 C 159.433594 178.070312 159.390625 177.152344 159.390625 176.234375 C 159.390625 175.316406 159.433594 174.398438 159.527344 173.484375 C 159.617188 172.566406 159.75 171.660156 159.933594 170.757812 C 160.113281 169.855469 160.335938 168.964844 160.605469 168.085938 C 160.871094 167.207031 161.183594 166.339844 161.535156 165.492188 C 161.890625 164.644531 162.285156 163.8125 162.71875 163.003906 C 163.15625 162.191406 163.628906 161.402344 164.144531 160.640625 C 164.65625 159.875 165.207031 159.136719 165.792969 158.425781 C 166.378906 157.714844 167 157.035156 167.652344 156.386719 C 168.304688 155.734375 168.988281 155.117188 169.703125 154.535156 C 170.417969 153.953125 171.160156 153.40625 171.925781 152.894531 C 172.695312 152.382812 173.484375 151.910156 174.300781 151.480469 C 175.117188 151.046875 175.949219 150.652344 176.804688 150.300781 C 177.65625 149.949219 178.527344 149.640625 179.410156 149.371094 C 180.292969 149.105469 181.1875 148.882812 182.09375 148.703125 C 183 148.523438 183.914062 148.390625 184.832031 148.300781 C 185.753906 148.210938 186.675781 148.164062 187.597656 148.164062 C 188.523438 148.164062 189.445312 148.210938 190.363281 148.300781 C 191.28125 148.390625 192.195312 148.523438 193.101562 148.703125 C 194.007812 148.882812 194.902344 149.105469 195.785156 149.371094 C 196.671875 149.640625 197.539062 149.949219 198.394531 150.300781 C 199.246094 150.652344 200.082031 151.046875 200.894531 151.480469 C 201.710938 151.910156 202.5 152.382812 203.269531 152.894531 C 204.039062 153.40625 204.777344 153.953125 205.492188 154.535156 C 206.207031 155.117188 206.890625 155.734375 207.542969 156.386719 C 208.199219 157.035156 208.816406 157.714844 209.402344 158.425781 C 209.988281 159.136719 210.539062 159.875 211.050781 160.640625 C 211.566406 161.402344 212.039062 162.191406 212.476562 163.003906 C 212.910156 163.8125 213.304688 164.644531 213.660156 165.492188 C 214.011719 166.339844 214.324219 167.207031 214.589844 168.085938 C 214.859375 168.964844 215.085938 169.855469 215.265625 170.757812 C 215.445312 171.660156 215.578125 172.566406 215.671875 173.484375 C 215.761719 174.398438 215.804688 175.316406 215.804688 176.234375 Z M 215.804688 176.234375 " fill-opacity="1" fill-rule="nonzero"/><g clip-path="url(#edeb5940cf)"><path stroke-linecap="butt" transform="matrix(0.558802, 0, 0, 0.556063, 103.839254, 104.118363)" fill="none" stroke-linejoin="miter" d="M 200.366926 129.690414 C 200.366926 131.341251 200.290031 132.992087 200.129252 134.635899 C 199.961482 136.286736 199.723809 137.916498 199.40225 139.539235 C 199.080692 141.161972 198.675249 142.763635 198.192911 144.344223 C 197.717564 145.924811 197.158331 147.4773 196.529195 149.008714 C 195.893069 150.533104 195.187038 152.029394 194.411104 153.483535 C 193.628179 154.944701 192.78234 156.363718 191.859607 157.733561 C 190.943865 159.110429 189.958218 160.438123 188.909658 161.716643 C 187.861098 162.995163 186.756614 164.217485 185.582227 165.383608 C 184.41483 166.556755 183.19151 167.659654 181.912266 168.71338 C 180.633023 169.760081 179.311837 170.743558 177.934728 171.663811 C 176.557619 172.584065 175.145558 173.427045 173.684564 174.206802 C 172.230561 174.986559 170.734615 175.696067 169.210707 176.328302 C 167.679809 176.960538 166.12794 177.5155 164.541119 177.993189 C 162.961289 178.477902 161.360487 178.878318 159.738714 179.201461 C 158.11694 179.524603 156.481187 179.763447 154.838442 179.925019 C 153.195698 180.08659 151.545963 180.170888 149.889238 180.170888 C 148.239503 180.170888 146.589769 180.08659 144.940034 179.925019 C 143.29729 179.763447 141.661536 179.524603 140.039763 179.201461 C 138.41799 178.878318 136.817188 178.477902 135.237357 177.993189 C 133.657526 177.5155 132.098667 176.960538 130.57476 176.328302 C 129.043862 175.696067 127.554906 174.986559 126.093912 174.206802 C 124.632918 173.427045 123.220857 172.584065 121.843748 171.663811 C 120.47363 170.743558 119.145453 169.760081 117.86621 168.71338 C 116.586967 167.659654 115.363646 166.556755 114.196249 165.383608 C 113.028852 164.217485 111.917379 162.995163 110.868818 161.716643 C 109.820258 160.438123 108.834612 159.110429 107.918869 157.733561 C 106.996136 156.363718 106.150298 154.944701 105.367373 153.483535 C 104.591438 152.029394 103.885408 150.533104 103.249281 149.008714 C 102.620145 147.4773 102.060913 145.924811 101.585566 144.344223 C 101.103228 142.763635 100.704775 141.161972 100.383217 139.539235 C 100.054668 137.916498 99.816994 136.286736 99.656215 134.635899 C 99.488445 132.992087 99.411551 131.341251 99.411551 129.690414 C 99.411551 128.039578 99.488445 126.388741 99.656215 124.74493 C 99.816994 123.094093 100.054668 121.464331 100.383217 119.841594 C 100.704775 118.218857 101.103228 116.617194 101.585566 115.036606 C 102.060913 113.456018 102.620145 111.896504 103.249281 110.372114 C 103.885408 108.847725 104.591438 107.351435 105.367373 105.897294 C 106.150298 104.436128 106.996136 103.017111 107.918869 101.647268 C 108.834612 100.2704 109.820258 98.942706 110.868818 97.664186 C 111.917379 96.385665 113.028852 95.163344 114.196249 93.997221 C 115.363646 92.824073 116.586967 91.714149 117.86621 90.667449 C 119.145453 89.620748 120.47363 88.637271 121.843748 87.717017 C 123.220857 86.796764 124.632918 85.946759 126.093912 85.174027 C 127.554906 84.39427 129.043862 83.684761 130.57476 83.052526 C 132.098667 82.420291 133.657526 81.865329 135.237357 81.380615 C 136.817188 80.902926 138.41799 80.50251 140.039763 80.179368 C 141.661536 79.856226 143.29729 79.617381 144.940034 79.45581 C 146.589769 79.294239 148.239503 79.209941 149.889238 79.209941 C 151.545963 79.209941 153.195698 79.294239 154.838442 79.45581 C 156.481187 79.617381 158.11694 79.856226 159.738714 80.179368 C 161.360487 80.50251 162.961289 80.902926 164.541119 81.380615 C 166.12794 81.865329 167.679809 82.420291 169.210707 83.052526 C 170.734615 83.684761 172.230561 84.39427 173.684564 85.174027 C 175.145558 85.946759 176.557619 86.796764 177.934728 87.717017 C 179.311837 88.637271 180.633023 89.620748 181.912266 90.667449 C 183.19151 91.714149 184.41483 92.824073 185.582227 93.997221 C 186.756614 95.163344 187.861098 96.385665 188.909658 97.664186 C 189.958218 98.942706 190.943865 100.2704 191.859607 101.647268 C 192.78234 103.017111 193.628179 104.436128 194.411104 105.897294 C 195.187038 107.351435 195.893069 108.847725 196.529195 110.372114 C 197.158331 111.896504 197.717564 113.456018 198.192911 115.036606 C 198.675249 116.617194 199.080692 118.218857 199.40225 119.841594 C 199.723809 121.464331 199.961482 123.094093 200.129252 124.74493 C 200.290031 126.388741 200.366926 128.039578 200.366926 129.690414 Z M 200.366926 129.690414 " stroke="#ffffff" stroke-width="2.382" stroke-opacity="1" stroke-miterlimit="10"/></g><path fill="#ffffff" d="M 215.804688 176.234375 C 215.804688 177.152344 215.761719 178.070312 215.671875 178.984375 C 215.578125 179.902344 215.445312 180.808594 215.265625 181.710938 C 215.085938 182.613281 214.859375 183.503906 214.589844 184.382812 C 214.324219 185.261719 214.011719 186.125 213.660156 186.976562 C 213.304688 187.824219 212.910156 188.65625 212.476562 189.464844 C 212.039062 190.277344 211.566406 191.066406 211.050781 191.828125 C 210.539062 192.59375 209.988281 193.332031 209.402344 194.042969 C 208.816406 194.753906 208.199219 195.433594 207.542969 196.082031 C 206.890625 196.734375 206.207031 197.347656 205.492188 197.933594 C 204.777344 198.515625 204.039062 199.0625 203.269531 199.574219 C 202.5 200.085938 201.710938 200.554688 200.894531 200.988281 C 200.082031 201.421875 199.246094 201.816406 198.394531 202.167969 C 197.539062 202.519531 196.671875 202.828125 195.785156 203.09375 C 194.902344 203.363281 194.007812 203.585938 193.101562 203.765625 C 192.195312 203.945312 191.28125 204.078125 190.363281 204.167969 C 189.445312 204.257812 188.523438 204.304688 187.597656 204.304688 C 186.675781 204.304688 185.753906 204.257812 184.832031 204.167969 C 183.914062 204.078125 183 203.945312 182.09375 203.765625 C 181.1875 203.585938 180.292969 203.363281 179.410156 203.09375 C 178.527344 202.828125 177.65625 202.519531 176.804688 202.167969 C 175.949219 201.816406 175.117188 201.421875 174.300781 200.988281 C 173.484375 200.554688 172.695312 200.085938 171.925781 199.574219 C 171.160156 199.0625 170.417969 198.515625 169.703125 197.933594 C 168.988281 197.347656 168.304688 196.734375 167.652344 196.082031 C 167 195.433594 166.378906 194.753906 165.792969 194.042969 C 165.207031 193.332031 164.65625 192.59375 164.144531 191.828125 C 163.628906 191.066406 163.15625 190.277344 162.71875 189.464844 C 162.285156 188.65625 161.890625 187.824219 161.535156 186.976562 C 161.183594 186.125 160.871094 185.261719 160.605469 184.382812 C 160.335938 183.503906 160.113281 182.613281 159.933594 181.710938 C 159.75 180.808594 159.617188 179.902344 159.527344 178.984375 C 159.433594 178.070312 159.390625 177.152344 159.390625 176.234375 C 159.390625 175.316406 159.433594 174.398438 159.527344 173.484375 C 159.617188 172.566406 159.75 171.660156 159.933594 170.757812 C 160.113281 169.855469 160.335938 168.964844 160.605469 168.085938 C 160.871094 167.207031 161.183594 166.339844 161.535156 165.492188 C 161.890625 164.644531 162.285156 163.8125 162.71875 163.003906 C 163.15625 162.191406 163.628906 161.402344 164.144531 160.640625 C 164.65625 159.875 165.207031 159.136719 165.792969 158.425781 C 166.378906 157.714844 167 157.035156 167.652344 156.386719 C 168.304688 155.734375 168.988281 155.117188 169.703125 154.535156 C 170.417969 153.953125 171.160156 153.40625 171.925781 152.894531 C 172.695312 152.382812 173.484375 151.910156 174.300781 151.480469 C 175.117188 151.046875 175.949219 150.652344 176.804688 150.300781 C 177.65625 149.949219 178.527344 149.640625 179.410156 149.371094 C 180.292969 149.105469 181.1875 148.882812 182.09375 148.703125 C 183 148.523438 183.914062 148.390625 184.832031 148.300781 C 185.753906 148.210938 186.675781 148.164062 187.597656 148.164062 C 188.523438 148.164062 189.445312 148.210938 190.363281 148.300781 C 191.28125 148.390625 192.195312 148.523438 193.101562 148.703125 C 194.007812 148.882812 194.902344 149.105469 195.785156 149.371094 C 196.671875 149.640625 197.539062 149.949219 198.394531 150.300781 C 199.246094 150.652344 200.082031 151.046875 200.894531 151.480469 C 201.710938 151.910156 202.5 152.382812 203.269531 152.894531 C 204.039062 153.40625 204.777344 153.953125 205.492188 154.535156 C 206.207031 155.117188 206.890625 155.734375 207.542969 156.386719 C 208.199219 157.035156 208.816406 157.714844 209.402344 158.425781 C 209.988281 159.136719 210.539062 159.875 211.050781 160.640625 C 211.566406 161.402344 212.039062 162.191406 212.476562 163.003906 C 212.910156 163.8125 213.304688 164.644531 213.660156 165.492188 C 214.011719 166.339844 214.324219 167.207031 214.589844 168.085938 C 214.859375 168.964844 215.085938 169.855469 215.265625 170.757812 C 215.445312 171.660156 215.578125 172.566406 215.671875 173.484375 C 215.761719 174.398438 215.804688 175.316406 215.804688 176.234375 Z M 215.804688 176.234375 " fill-opacity="1" fill-rule="nonzero"/><g clip-path="url(#950f1ed5d3)"><path stroke-linecap="butt" transform="matrix(0.558802, 0, 0, 0.556063, 103.839254, 104.118363)" fill="none" stroke-linejoin="miter" d="M 200.366926 129.690414 C 200.366926 131.341251 200.290031 132.992087 200.129252 134.635899 C 199.961482 136.286736 199.723809 137.916498 199.40225 139.539235 C 199.080692 141.161972 198.675249 142.763635 198.192911 144.344223 C 197.717564 145.924811 197.158331 147.4773 196.529195 149.008714 C 195.893069 150.533104 195.187038 152.029394 194.411104 153.483535 C 193.628179 154.944701 192.78234 156.363718 191.859607 157.733561 C 190.943865 159.110429 189.958218 160.438123 188.909658 161.716643 C 187.861098 162.995163 186.756614 164.217485 185.582227 165.383608 C 184.41483 166.556755 183.19151 167.659654 181.912266 168.71338 C 180.633023 169.760081 179.311837 170.743558 177.934728 171.663811 C 176.557619 172.584065 175.145558 173.427045 173.684564 174.206802 C 172.230561 174.986559 170.734615 175.696067 169.210707 176.328302 C 167.679809 176.960538 166.12794 177.5155 164.541119 177.993189 C 162.961289 178.477902 161.360487 178.878318 159.738714 179.201461 C 158.11694 179.524603 156.481187 179.763447 154.838442 179.925019 C 153.195698 180.08659 151.545963 180.170888 149.889238 180.170888 C 148.239503 180.170888 146.589769 180.08659 144.940034 179.925019 C 143.29729 179.763447 141.661536 179.524603 140.039763 179.201461 C 138.41799 178.878318 136.817188 178.477902 135.237357 177.993189 C 133.657526 177.5155 132.098667 176.960538 130.57476 176.328302 C 129.043862 175.696067 127.554906 174.986559 126.093912 174.206802 C 124.632918 173.427045 123.220857 172.584065 121.843748 171.663811 C 120.47363 170.743558 119.145453 169.760081 117.86621 168.71338 C 116.586967 167.659654 115.363646 166.556755 114.196249 165.383608 C 113.028852 164.217485 111.917379 162.995163 110.868818 161.716643 C 109.820258 160.438123 108.834612 159.110429 107.918869 157.733561 C 106.996136 156.363718 106.150298 154.944701 105.367373 153.483535 C 104.591438 152.029394 103.885408 150.533104 103.249281 149.008714 C 102.620145 147.4773 102.060913 145.924811 101.585566 144.344223 C 101.103228 142.763635 100.704775 141.161972 100.383217 139.539235 C 100.054668 137.916498 99.816994 136.286736 99.656215 134.635899 C 99.488445 132.992087 99.411551 131.341251 99.411551 129.690414 C 99.411551 128.039578 99.488445 126.388741 99.656215 124.74493 C 99.816994 123.094093 100.054668 121.464331 100.383217 119.841594 C 100.704775 118.218857 101.103228 116.617194 101.585566 115.036606 C 102.060913 113.456018 102.620145 111.896504 103.249281 110.372114 C 103.885408 108.847725 104.591438 107.351435 105.367373 105.897294 C 106.150298 104.436128 106.996136 103.017111 107.918869 101.647268 C 108.834612 100.2704 109.820258 98.942706 110.868818 97.664186 C 111.917379 96.385665 113.028852 95.163344 114.196249 93.997221 C 115.363646 92.824073 116.586967 91.714149 117.86621 90.667449 C 119.145453 89.620748 120.47363 88.637271 121.843748 87.717017 C 123.220857 86.796764 124.632918 85.946759 126.093912 85.174027 C 127.554906 84.39427 129.043862 83.684761 130.57476 83.052526 C 132.098667 82.420291 133.657526 81.865329 135.237357 81.380615 C 136.817188 80.902926 138.41799 80.50251 140.039763 80.179368 C 141.661536 79.856226 143.29729 79.617381 144.940034 79.45581 C 146.589769 79.294239 148.239503 79.209941 149.889238 79.209941 C 151.545963 79.209941 153.195698 79.294239 154.838442 79.45581 C 156.481187 79.617381 158.11694 79.856226 159.738714 80.179368 C 161.360487 80.50251 162.961289 80.902926 164.541119 81.380615 C 166.12794 81.865329 167.679809 82.420291 169.210707 83.052526 C 170.734615 83.684761 172.230561 84.39427 173.684564 85.174027 C 175.145558 85.946759 176.557619 86.796764 177.934728 87.717017 C 179.311837 88.637271 180.633023 89.620748 181.912266 90.667449 C 183.19151 91.714149 184.41483 92.824073 185.582227 93.997221 C 186.756614 95.163344 187.861098 96.385665 188.909658 97.664186 C 189.958218 98.942706 190.943865 100.2704 191.859607 101.647268 C 192.78234 103.017111 193.628179 104.436128 194.411104 105.897294 C 195.187038 107.351435 195.893069 108.847725 196.529195 110.372114 C 197.158331 111.896504 197.717564 113.456018 198.192911 115.036606 C 198.675249 116.617194 199.080692 118.218857 199.40225 119.841594 C 199.723809 121.464331 199.961482 123.094093 200.129252 124.74493 C 200.290031 126.388741 200.366926 128.039578 200.366926 129.690414 Z M 200.366926 129.690414 " stroke="#ffffff" stroke-width="3.573" stroke-opacity="1" stroke-miterlimit="10"/></g><path fill="#253c84" d="M 211.101562 160.714844 C 214.695312 174.578125 206.664062 188.390625 187.597656 188.335938 C 181.667969 188.316406 169.382812 189.21875 163.832031 191.359375 C 168.800781 198.847656 178.046875 204.308594 187.597656 204.308594 C 203.175781 204.308594 215.804688 191.742188 215.804688 176.238281 C 215.804688 170.496094 214.074219 165.15625 211.101562 160.714844 Z M 211.101562 160.714844 " fill-opacity="1" fill-rule="nonzero"/><path fill="#ee2e34" d="M 159.382812 176.234375 C 159.382812 182.816406 162.910156 189.824219 162.910156 189.824219 C 168.761719 190.628906 206.023438 173.632812 204.367188 153.664062 C 199.679688 150.203125 193.875 148.160156 187.59375 148.160156 C 172.019531 148.164062 159.382812 160.730469 159.382812 176.234375 Z M 159.382812 176.234375 " fill-opacity="1" fill-rule="nonzero"/><path fill="#253c84" d="M 215.371094 248.207031 L 207.234375 249.777344 L 207.234375 145.5 C 207.234375 140.519531 209.535156 136.429688 212.441406 136.246094 L 218.527344 135.871094 C 221.625 135.679688 224.175781 139.980469 224.121094 145.289062 L 223.484375 244.414062 C 223.484375 246.6875 216.03125 248.023438 215.371094 248.207031 Z M 215.371094 248.207031 " fill-opacity="0.6" fill-rule="nonzero"/><path fill="#ffffff" d="M 157.8125 248.082031 L 154.605469 247.222656 C 152.152344 247.003906 152.019531 246.316406 152.019531 243.863281 L 150.683594 134.132812 C 152.8125 131.242188 159.539062 121.207031 158.574219 119.394531 L 175.710938 118.238281 C 172.789062 120.8125 167.636719 130.953125 167.582031 136.226562 L 167.867188 244.769531 C 167.910156 249.800781 167.910156 249.800781 167.910156 249.800781 C 166.246094 249.539062 159.832031 248.554688 159.382812 248.4375 C 159.273438 248.40625 157.925781 248.089844 157.8125 248.082031 Z M 157.8125 248.082031 " fill-opacity="0.25" fill-rule="nonzero"/><path fill="#a799a0" d="M 151.835938 246.363281 C 151.839844 246.75 151.953125 247.125 152.171875 247.4375 Z M 151.835938 246.363281 " fill-opacity="1" fill-rule="nonzero"/><g clip-path="url(#0e8e87dbd5)"><path stroke-linecap="butt" transform="matrix(0.558802, 0, 0, 0.556063, 103.839254, 104.118363)" fill="none" stroke-linejoin="miter" d="M 85.892115 255.8073 C 85.899105 256.502759 86.101827 257.177144 86.493289 257.73913 Z M 85.892115 255.8073 " stroke="#010101" stroke-width="2.374" stroke-opacity="1" stroke-miterlimit="10"/></g><path fill="#a799a0" d="M 152.171875 247.4375 C 154.410156 250.601562 157.882812 252.894531 160.902344 253.621094 C 161.339844 253.933594 161.582031 254.292969 161.648438 254.699219 C 161.757812 255.40625 162.140625 256.050781 162.796875 256.335938 C 167.398438 258.285156 172.242188 259.714844 177.199219 260.394531 C 183.976562 261.324219 191.828125 261.324219 198.613281 260.394531 C 203.570312 259.714844 208.414062 258.292969 213.011719 256.335938 C 213.671875 256.058594 214.050781 255.410156 214.164062 254.699219 C 214.226562 254.292969 214.472656 253.933594 214.90625 253.621094 C 217.929688 252.894531 221.398438 250.601562 223.640625 247.4375 C 223.863281 247.125 223.976562 246.75 223.976562 246.363281 C 199.957031 252.714844 176.023438 253.222656 152.171875 247.4375 Z M 152.171875 247.4375 " fill-opacity="1" fill-rule="nonzero"/><g clip-path="url(#f7cd7165c5)"><path stroke-linecap="butt" transform="matrix(0.558802, 0, 0, 0.556063, 103.839254, 104.118363)" fill="none" stroke-linejoin="miter" d="M 86.493289 257.73913 C 90.498789 263.429248 96.713256 267.552827 102.116836 268.859446 C 102.899761 269.421433 103.333166 270.067718 103.452003 270.798301 C 103.647734 272.069796 104.332793 273.228894 105.507181 273.741708 C 113.741873 277.247101 122.409971 279.818191 131.28079 281.040512 C 143.409136 282.712423 157.459843 282.712423 169.60217 281.040512 C 178.472989 279.818191 187.141086 277.26115 195.368789 273.741708 C 196.550167 273.242944 197.228235 272.076821 197.430957 270.798301 C 197.542804 270.067718 197.983199 269.421433 198.759133 268.859446 C 204.169704 267.552827 210.37718 263.429248 214.389671 257.73913 C 214.788123 257.177144 214.990845 256.502759 214.990845 255.8073 C 172.006868 267.229684 129.176679 268.142913 86.493289 257.73913 Z M 86.493289 257.73913 " stroke="#010101" stroke-width="2.374" stroke-opacity="1" stroke-miterlimit="10"/></g><path fill="#a799a0" d="M 216.589844 118.332031 L 217.605469 118.332031 C 217.691406 118.109375 217.800781 117.898438 217.953125 117.707031 C 217.957031 117.699219 217.964844 117.691406 217.96875 117.679688 C 218.699219 116.53125 217.917969 115.007812 216.5625 114.84375 C 211.089844 114.207031 205.589844 113.792969 200.082031 113.65625 C 186.453125 113.308594 172.5625 113.199219 159 114.734375 C 157.640625 114.890625 156.847656 116.414062 157.578125 117.5625 C 157.585938 117.574219 157.589844 117.582031 157.597656 117.589844 C 157.910156 117.980469 158.058594 118.449219 158.085938 118.964844 C 158.105469 118.953125 158.121094 118.949219 158.136719 118.9375 L 158.09375 118.9375 C 158.042969 118.875 158.1875 118.816406 158.484375 118.75 C 158.640625 118.683594 158.808594 118.621094 158.992188 118.613281 C 169.125 118.421875 178.550781 117.582031 189.234375 117.714844 C 200.796875 117.859375 213.46875 117.535156 216.589844 118.535156 Z M 216.589844 118.332031 " fill-opacity="1" fill-rule="nonzero"/><g clip-path="url(#6a0d9035ec)"><path stroke-linecap="butt" transform="matrix(0.558802, 0, 0, 0.556063, 103.839254, 104.118363)" fill="none" stroke-linejoin="miter" d="M 201.771996 25.561266 L 203.589501 25.561266 C 203.743289 25.16085 203.939021 24.781509 204.211646 24.437292 C 204.218637 24.423242 204.232618 24.409193 204.239608 24.388118 C 205.546813 22.322816 204.148733 19.58313 201.723063 19.288087 C 191.929511 18.143039 182.087026 17.398406 172.230561 17.152537 C 147.841051 16.527326 122.983184 16.330631 98.712511 19.091392 C 96.279851 19.372385 94.8608 22.112071 96.168005 24.177373 C 96.181985 24.198448 96.188976 24.212497 96.202957 24.226547 C 96.762189 24.92903 97.027824 25.772011 97.076757 26.699289 C 97.111709 26.678215 97.13967 26.67119 97.167632 26.650115 L 97.090738 26.650115 C 96.999862 26.537718 97.258507 26.432345 97.789778 26.312923 C 98.069394 26.193501 98.369981 26.081104 98.69853 26.067054 C 116.831631 25.722837 133.699469 24.212497 152.818216 24.451342 C 173.509804 24.711261 196.186666 24.128199 201.771996 25.926557 Z M 201.771996 25.561266 " stroke="#010101" stroke-width="2.382" stroke-opacity="1" stroke-miterlimit="10"/></g><path fill="#070707" d="M 150.148438 133.535156 C 156.417969 134.289062 162.714844 134.929688 169.019531 135.480469 L 169 135.769531 C 162.671875 135.640625 156.339844 135.429688 150 135.085938 Z M 150.148438 133.535156 " fill-opacity="1" fill-rule="nonzero"/><path fill="#070707" d="M 203.167969 136.140625 C 206.472656 135.0625 210.050781 134.917969 213.429688 135.746094 C 210.132812 136.832031 206.535156 136.964844 203.167969 136.140625 Z M 203.167969 136.140625 " fill-opacity="1" fill-rule="nonzero"/><g clip-path="url(#7fc0aeede0)"><path stroke-linecap="butt" transform="matrix(0.558802, 0, 0, 0.556063, 103.839254, 104.118363)" fill="none" stroke-linejoin="miter" d="M 102.088874 268.697875 C 131.763128 276.909909 163.932954 277.668591 199.381279 268.697875 " stroke="#010101" stroke-width="2.382" stroke-opacity="1" stroke-miterlimit="10"/></g><g transform="matrix(1, 0, 0, 1, 163, 165)"><g clip-path="url(#66719fa666)"><g fill="#808080" fill-opacity="1"><g transform="translate(1.759759, 19.476005)"><g><path d="M 1.609375 0 L 1.609375 -12.359375 L 6.875 -12.359375 C 7.632812 -12.359375 8.28125 -12.238281 8.8125 -12 C 9.34375 -11.757812 9.742188 -11.414062 10.015625 -10.96875 C 10.285156 -10.53125 10.421875 -10.007812 10.421875 -9.40625 C 10.421875 -8.863281 10.285156 -8.382812 10.015625 -7.96875 C 9.753906 -7.550781 9.375 -7.210938 8.875 -6.953125 L 8.875 -6.78125 C 9.65625 -6.570312 10.253906 -6.203125 10.671875 -5.671875 C 11.097656 -5.140625 11.3125 -4.484375 11.3125 -3.703125 C 11.3125 -2.515625 10.953125 -1.597656 10.234375 -0.953125 C 9.523438 -0.316406 8.46875 0 7.0625 0 Z M 6.375 -7.4375 C 7.507812 -7.4375 8.078125 -7.945312 8.078125 -8.96875 C 8.078125 -9.488281 7.9375 -9.878906 7.65625 -10.140625 C 7.375 -10.398438 6.945312 -10.53125 6.375 -10.53125 L 4.046875 -10.53125 L 4.046875 -7.4375 Z M 6.828125 -1.9375 C 8.171875 -1.9375 8.84375 -2.546875 8.84375 -3.765625 C 8.84375 -4.992188 8.171875 -5.609375 6.828125 -5.609375 L 4.046875 -5.609375 L 4.046875 -1.9375 Z M 6.828125 -1.9375 "/></g></g></g><g fill="#808080" fill-opacity="1"><g transform="translate(13.847497, 19.476005)"><g><path d="M 9.21875 -4.140625 L 3.21875 -4.140625 C 3.289062 -3.328125 3.519531 -2.734375 3.90625 -2.359375 C 4.300781 -1.992188 4.84375 -1.8125 5.53125 -1.8125 C 6.0625 -1.8125 6.492188 -1.910156 6.828125 -2.109375 C 7.160156 -2.304688 7.429688 -2.609375 7.640625 -3.015625 L 7.8125 -3.015625 L 9.359375 -2.015625 C 9.054688 -1.367188 8.597656 -0.84375 7.984375 -0.4375 C 7.367188 -0.03125 6.550781 0.171875 5.53125 0.171875 C 4.5625 0.171875 3.726562 -0.0078125 3.03125 -0.375 C 2.332031 -0.738281 1.789062 -1.28125 1.40625 -2 C 1.03125 -2.726562 0.84375 -3.613281 0.84375 -4.65625 C 0.84375 -5.71875 1.039062 -6.609375 1.4375 -7.328125 C 1.832031 -8.054688 2.367188 -8.597656 3.046875 -8.953125 C 3.734375 -9.316406 4.503906 -9.5 5.359375 -9.5 C 6.679688 -9.5 7.691406 -9.148438 8.390625 -8.453125 C 9.085938 -7.753906 9.4375 -6.726562 9.4375 -5.375 C 9.4375 -4.882812 9.421875 -4.503906 9.390625 -4.234375 Z M 7.203125 -5.640625 C 7.179688 -6.359375 7.015625 -6.878906 6.703125 -7.203125 C 6.398438 -7.523438 5.953125 -7.6875 5.359375 -7.6875 C 4.171875 -7.6875 3.472656 -7.003906 3.265625 -5.640625 Z M 7.203125 -5.640625 "/></g></g></g><g fill="#808080" fill-opacity="1"><g transform="translate(23.982602, 19.476005)"><g><path d="M 1.34375 3.78125 L 1.34375 -9.328125 L 3.6875 -9.328125 L 3.6875 -8.109375 L 3.859375 -8.078125 C 4.140625 -8.546875 4.507812 -8.898438 4.96875 -9.140625 C 5.425781 -9.378906 5.96875 -9.5 6.59375 -9.5 C 7.34375 -9.5 8 -9.320312 8.5625 -8.96875 C 9.125 -8.613281 9.5625 -8.070312 9.875 -7.34375 C 10.1875 -6.625 10.34375 -5.726562 10.34375 -4.65625 C 10.34375 -3.59375 10.175781 -2.695312 9.84375 -1.96875 C 9.507812 -1.25 9.050781 -0.710938 8.46875 -0.359375 C 7.882812 -0.00390625 7.207031 0.171875 6.4375 0.171875 C 5.863281 0.171875 5.363281 0.078125 4.9375 -0.109375 C 4.507812 -0.304688 4.148438 -0.609375 3.859375 -1.015625 L 3.6875 -0.984375 L 3.6875 3.78125 Z M 5.796875 -1.8125 C 6.492188 -1.8125 7.019531 -2.035156 7.375 -2.484375 C 7.738281 -2.941406 7.921875 -3.664062 7.921875 -4.65625 C 7.921875 -5.644531 7.738281 -6.367188 7.375 -6.828125 C 7.019531 -7.285156 6.492188 -7.515625 5.796875 -7.515625 C 5.140625 -7.515625 4.617188 -7.273438 4.234375 -6.796875 C 3.847656 -6.328125 3.65625 -5.613281 3.65625 -4.65625 C 3.65625 -3.707031 3.847656 -2.992188 4.234375 -2.515625 C 4.617188 -2.046875 5.140625 -1.8125 5.796875 -1.8125 Z M 5.796875 -1.8125 "/></g></g></g><g fill="#808080" fill-opacity="1"><g transform="translate(35.148969, 19.476005)"><g><path d="M 4.359375 0.171875 C 3.722656 0.171875 3.140625 0.0976562 2.609375 -0.046875 C 2.078125 -0.191406 1.625 -0.394531 1.25 -0.65625 C 0.875 -0.925781 0.597656 -1.226562 0.421875 -1.5625 L 1.71875 -2.96875 L 1.90625 -2.96875 C 2.207031 -2.550781 2.570312 -2.238281 3 -2.03125 C 3.425781 -1.820312 3.882812 -1.71875 4.375 -1.71875 C 4.832031 -1.71875 5.175781 -1.796875 5.40625 -1.953125 C 5.632812 -2.117188 5.75 -2.351562 5.75 -2.65625 C 5.75 -2.894531 5.664062 -3.09375 5.5 -3.25 C 5.34375 -3.414062 5.078125 -3.546875 4.703125 -3.640625 L 3.46875 -3.9375 C 2.539062 -4.15625 1.863281 -4.488281 1.4375 -4.9375 C 1.007812 -5.394531 0.796875 -5.972656 0.796875 -6.671875 C 0.796875 -7.253906 0.941406 -7.757812 1.234375 -8.1875 C 1.535156 -8.613281 1.957031 -8.9375 2.5 -9.15625 C 3.039062 -9.382812 3.664062 -9.5 4.375 -9.5 C 5.21875 -9.5 5.914062 -9.378906 6.46875 -9.140625 C 7.019531 -8.898438 7.453125 -8.578125 7.765625 -8.171875 L 6.515625 -6.8125 L 6.34375 -6.8125 C 6.082031 -7.101562 5.789062 -7.316406 5.46875 -7.453125 C 5.144531 -7.585938 4.78125 -7.65625 4.375 -7.65625 C 3.457031 -7.65625 3 -7.367188 3 -6.796875 C 3 -6.554688 3.082031 -6.359375 3.25 -6.203125 C 3.425781 -6.046875 3.726562 -5.921875 4.15625 -5.828125 L 5.3125 -5.578125 C 6.257812 -5.378906 6.953125 -5.054688 7.390625 -4.609375 C 7.828125 -4.160156 8.046875 -3.554688 8.046875 -2.796875 C 8.046875 -2.203125 7.894531 -1.679688 7.59375 -1.234375 C 7.300781 -0.785156 6.878906 -0.4375 6.328125 -0.1875 C 5.773438 0.0507812 5.117188 0.171875 4.359375 0.171875 Z M 4.359375 0.171875 "/></g></g></g><g fill="#808080" fill-opacity="1"><g transform="translate(43.745635, 19.476005)"><g><path d="M 2.515625 -10.4375 C 2.085938 -10.4375 1.738281 -10.5625 1.46875 -10.8125 C 1.207031 -11.070312 1.078125 -11.40625 1.078125 -11.8125 C 1.078125 -12.21875 1.207031 -12.546875 1.46875 -12.796875 C 1.738281 -13.054688 2.085938 -13.1875 2.515625 -13.1875 C 2.796875 -13.1875 3.046875 -13.125 3.265625 -13 C 3.484375 -12.882812 3.648438 -12.722656 3.765625 -12.515625 C 3.890625 -12.316406 3.953125 -12.082031 3.953125 -11.8125 C 3.953125 -11.550781 3.890625 -11.316406 3.765625 -11.109375 C 3.648438 -10.898438 3.484375 -10.734375 3.265625 -10.609375 C 3.046875 -10.492188 2.796875 -10.4375 2.515625 -10.4375 Z M 1.34375 0 L 1.34375 -9.328125 L 3.6875 -9.328125 L 3.6875 0 Z M 1.34375 0 "/></g></g></g><g fill="#004aad" fill-opacity="1"><g transform="translate(0.994613, 18.710859)"><g><path d="M 1.28125 0 L 1.28125 -12.683594 L 6.882812 -12.683594 C 7.6875 -12.683594 8.378906 -12.554688 8.945312 -12.296875 C 9.535156 -12.027344 9.980469 -11.644531 10.285156 -11.144531 C 10.589844 -10.652344 10.738281 -10.074219 10.738281 -9.410156 C 10.738281 -8.800781 10.589844 -8.257812 10.292969 -7.789062 C 9.996094 -7.320312 9.570312 -6.949219 9.023438 -6.667969 L 8.875 -6.957031 L 9.199219 -6.957031 L 9.199219 -6.78125 L 8.875 -6.78125 L 8.957031 -7.09375 C 9.804688 -6.871094 10.464844 -6.464844 10.929688 -5.875 C 11.402344 -5.277344 11.636719 -4.554688 11.636719 -3.703125 C 11.636719 -2.421875 11.242188 -1.429688 10.457031 -0.722656 C 9.683594 -0.0234375 8.554688 0.324219 7.066406 0.324219 L 1.28125 0.324219 Z M 1.929688 0 L 1.605469 0 L 1.605469 -0.324219 L 7.066406 -0.324219 C 8.386719 -0.324219 9.371094 -0.617188 10.023438 -1.203125 C 10.664062 -1.78125 10.984375 -2.617188 10.984375 -3.703125 C 10.984375 -4.40625 10.796875 -4.996094 10.421875 -5.472656 C 10.042969 -5.949219 9.5 -6.28125 8.792969 -6.464844 L 8.550781 -6.527344 L 8.550781 -7.15625 L 8.726562 -7.246094 C 9.171875 -7.472656 9.511719 -7.769531 9.742188 -8.136719 C 9.972656 -8.5 10.089844 -8.925781 10.089844 -9.410156 C 10.089844 -9.949219 9.96875 -10.417969 9.730469 -10.808594 C 9.496094 -11.191406 9.144531 -11.492188 8.679688 -11.703125 C 8.195312 -11.925781 7.59375 -12.035156 6.882812 -12.035156 L 1.605469 -12.035156 L 1.605469 -12.359375 L 1.929688 -12.359375 Z M 6.375 -7.753906 C 6.859375 -7.753906 7.214844 -7.855469 7.4375 -8.054688 C 7.648438 -8.25 7.757812 -8.550781 7.757812 -8.96875 C 7.757812 -9.398438 7.652344 -9.707031 7.441406 -9.898438 C 7.21875 -10.101562 6.863281 -10.199219 6.375 -10.199219 L 4.050781 -10.199219 L 4.050781 -10.523438 L 4.375 -10.523438 L 4.375 -7.429688 L 4.050781 -7.429688 L 4.050781 -7.753906 Z M 6.375 -7.105469 L 3.722656 -7.105469 L 3.722656 -10.847656 L 6.375 -10.847656 C 7.03125 -10.847656 7.535156 -10.691406 7.878906 -10.378906 C 8.230469 -10.058594 8.40625 -9.589844 8.40625 -8.96875 C 8.40625 -8.359375 8.226562 -7.894531 7.871094 -7.574219 C 7.523438 -7.261719 7.027344 -7.105469 6.375 -7.105469 Z M 6.820312 -2.261719 C 7.410156 -2.261719 7.84375 -2.386719 8.117188 -2.632812 C 8.382812 -2.875 8.515625 -3.253906 8.515625 -3.769531 C 8.515625 -4.289062 8.382812 -4.667969 8.117188 -4.914062 C 7.84375 -5.164062 7.410156 -5.289062 6.820312 -5.289062 L 4.050781 -5.289062 L 4.050781 -5.613281 L 4.375 -5.613281 L 4.375 -1.9375 L 4.050781 -1.9375 L 4.050781 -2.261719 Z M 6.820312 -1.609375 L 3.722656 -1.609375 L 3.722656 -5.9375 L 6.820312 -5.9375 C 7.578125 -5.9375 8.15625 -5.753906 8.554688 -5.390625 C 8.964844 -5.019531 9.167969 -4.480469 9.167969 -3.769531 C 9.167969 -3.0625 8.964844 -2.523438 8.554688 -2.152344 C 8.15625 -1.792969 7.578125 -1.609375 6.820312 -1.609375 Z M 6.820312 -1.609375 "/></g></g></g><g fill="#004aad" fill-opacity="1"><g transform="translate(13.08235, 18.710859)"><g><path d="M 9.214844 -3.808594 L 3.21875 -3.808594 L 3.21875 -4.132812 L 3.542969 -4.160156 C 3.605469 -3.433594 3.800781 -2.910156 4.136719 -2.601562 C 4.46875 -2.289062 4.933594 -2.132812 5.527344 -2.132812 C 6.003906 -2.132812 6.382812 -2.21875 6.664062 -2.386719 C 6.941406 -2.554688 7.167969 -2.8125 7.34375 -3.164062 L 7.433594 -3.34375 L 7.90625 -3.34375 L 9.78125 -2.140625 L 9.660156 -1.882812 C 9.332031 -1.175781 8.832031 -0.601562 8.167969 -0.160156 C 7.5 0.28125 6.617188 0.503906 5.527344 0.503906 C 4.511719 0.503906 3.628906 0.308594 2.878906 -0.0859375 C 2.117188 -0.480469 1.53125 -1.074219 1.121094 -1.855469 C 0.714844 -2.628906 0.511719 -3.5625 0.511719 -4.65625 C 0.511719 -5.773438 0.726562 -6.71875 1.152344 -7.492188 C 1.585938 -8.277344 2.167969 -8.863281 2.910156 -9.253906 C 3.636719 -9.636719 4.453125 -9.824219 5.359375 -9.824219 C 6.765625 -9.824219 7.855469 -9.445312 8.617188 -8.683594 C 9.382812 -7.921875 9.765625 -6.820312 9.765625 -5.375 C 9.765625 -4.871094 9.75 -4.480469 9.714844 -4.195312 L 9.695312 -4.035156 L 9.300781 -3.808594 Z M 9.214844 -4.457031 L 9.214844 -4.132812 L 9.054688 -4.414062 L 9.230469 -4.515625 L 9.390625 -4.234375 L 9.070312 -4.273438 C 9.101562 -4.53125 9.117188 -4.898438 9.117188 -5.375 C 9.117188 -6.640625 8.796875 -7.589844 8.160156 -8.222656 C 7.523438 -8.859375 6.589844 -9.175781 5.359375 -9.175781 C 4.5625 -9.175781 3.84375 -9.011719 3.210938 -8.675781 C 2.585938 -8.351562 2.089844 -7.851562 1.722656 -7.179688 C 1.347656 -6.503906 1.160156 -5.660156 1.160156 -4.65625 C 1.160156 -3.667969 1.339844 -2.835938 1.695312 -2.160156 C 2.042969 -1.496094 2.539062 -0.996094 3.179688 -0.660156 C 3.835938 -0.316406 4.617188 -0.148438 5.527344 -0.148438 C 6.488281 -0.148438 7.25 -0.332031 7.808594 -0.703125 C 8.371094 -1.074219 8.792969 -1.558594 9.070312 -2.15625 L 9.367188 -2.019531 L 9.191406 -1.746094 L 7.636719 -2.746094 L 7.8125 -3.019531 L 7.8125 -2.691406 L 7.632812 -2.691406 L 7.632812 -3.019531 L 7.921875 -2.871094 C 7.691406 -2.410156 7.382812 -2.0625 6.996094 -1.832031 C 6.613281 -1.601562 6.125 -1.484375 5.527344 -1.484375 C 4.761719 -1.484375 4.148438 -1.699219 3.691406 -2.125 C 3.238281 -2.550781 2.972656 -3.210938 2.898438 -4.105469 L 2.867188 -4.457031 Z M 6.878906 -5.636719 C 6.859375 -6.265625 6.722656 -6.710938 6.472656 -6.976562 C 6.230469 -7.230469 5.859375 -7.359375 5.359375 -7.359375 C 4.855469 -7.359375 4.460938 -7.21875 4.175781 -6.941406 C 3.878906 -6.652344 3.6875 -6.203125 3.59375 -5.597656 L 3.269531 -5.648438 L 3.269531 -5.972656 L 7.203125 -5.972656 L 7.203125 -5.648438 Z M 7.539062 -5.320312 L 2.894531 -5.320312 L 2.949219 -5.695312 C 3.066406 -6.445312 3.324219 -7.015625 3.722656 -7.40625 C 4.132812 -7.808594 4.679688 -8.007812 5.359375 -8.007812 C 6.042969 -8.007812 6.570312 -7.8125 6.941406 -7.421875 C 7.308594 -7.039062 7.5 -6.449219 7.527344 -5.65625 Z M 7.539062 -5.320312 "/></g></g></g><g fill="#004aad" fill-opacity="1"><g transform="translate(23.217456, 18.710859)"><g><path d="M 1.019531 3.777344 L 1.019531 -9.648438 L 4.011719 -9.648438 L 4.011719 -8.105469 L 3.6875 -8.105469 L 3.746094 -8.425781 L 3.925781 -8.390625 L 3.863281 -8.074219 L 3.582031 -8.238281 C 3.890625 -8.765625 4.304688 -9.160156 4.820312 -9.429688 C 5.332031 -9.695312 5.921875 -9.824219 6.59375 -9.824219 C 7.40625 -9.824219 8.117188 -9.632812 8.734375 -9.242188 C 9.351562 -8.851562 9.828125 -8.265625 10.167969 -7.480469 C 10.496094 -6.714844 10.664062 -5.773438 10.664062 -4.65625 C 10.664062 -3.546875 10.488281 -2.605469 10.140625 -1.84375 C 9.78125 -1.0625 9.28125 -0.472656 8.640625 -0.0820312 C 8 0.308594 7.269531 0.503906 6.441406 0.503906 C 5.8125 0.503906 5.265625 0.394531 4.800781 0.179688 C 4.324219 -0.0390625 3.925781 -0.375 3.597656 -0.835938 L 3.863281 -1.023438 L 3.925781 -0.703125 L 3.746094 -0.671875 L 3.6875 -0.988281 L 4.011719 -0.988281 L 4.011719 4.101562 L 1.019531 4.101562 Z M 1.667969 3.777344 L 1.34375 3.777344 L 1.34375 3.453125 L 3.6875 3.453125 L 3.6875 3.777344 L 3.359375 3.777344 L 3.359375 -1.257812 L 4.007812 -1.378906 L 4.128906 -1.210938 C 4.386719 -0.847656 4.703125 -0.578125 5.074219 -0.410156 C 5.453125 -0.234375 5.910156 -0.148438 6.441406 -0.148438 C 7.148438 -0.148438 7.765625 -0.308594 8.300781 -0.636719 C 8.832031 -0.960938 9.246094 -1.453125 9.546875 -2.113281 C 9.859375 -2.792969 10.015625 -3.640625 10.015625 -4.65625 C 10.015625 -5.683594 9.867188 -6.539062 9.570312 -7.222656 C 9.285156 -7.882812 8.890625 -8.375 8.386719 -8.695312 C 7.878906 -9.015625 7.28125 -9.175781 6.59375 -9.175781 C 6.027344 -9.175781 5.535156 -9.070312 5.121094 -8.855469 C 4.714844 -8.644531 4.386719 -8.328125 4.144531 -7.910156 L 4.027344 -7.710938 L 3.359375 -7.839844 L 3.359375 -9.324219 L 3.6875 -9.324219 L 3.6875 -9 L 1.34375 -9 L 1.34375 -9.324219 L 1.667969 -9.324219 Z M 5.789062 -2.132812 C 6.382812 -2.132812 6.828125 -2.320312 7.125 -2.695312 C 7.4375 -3.09375 7.597656 -3.746094 7.597656 -4.65625 C 7.597656 -5.570312 7.4375 -6.226562 7.125 -6.625 C 6.828125 -7.003906 6.382812 -7.191406 5.789062 -7.191406 C 5.238281 -7.191406 4.804688 -6.992188 4.488281 -6.601562 C 4.152344 -6.1875 3.984375 -5.539062 3.984375 -4.65625 C 3.984375 -3.78125 4.152344 -3.136719 4.488281 -2.722656 C 4.804688 -2.332031 5.238281 -2.132812 5.789062 -2.132812 Z M 5.789062 -1.484375 C 5.035156 -1.484375 4.429688 -1.761719 3.984375 -2.316406 C 3.550781 -2.847656 3.335938 -3.628906 3.335938 -4.65625 C 3.335938 -5.691406 3.550781 -6.476562 3.984375 -7.007812 C 4.429688 -7.5625 5.035156 -7.839844 5.789062 -7.839844 C 6.59375 -7.839844 7.210938 -7.570312 7.636719 -7.027344 C 8.042969 -6.507812 8.246094 -5.71875 8.246094 -4.65625 C 8.246094 -3.597656 8.042969 -2.808594 7.632812 -2.292969 C 7.207031 -1.753906 6.59375 -1.484375 5.789062 -1.484375 Z M 5.789062 -1.484375 "/></g></g></g><g fill="#004aad" fill-opacity="1"><g transform="translate(34.383823, 18.710859)"><g><path d="M 4.363281 0.503906 C 3.695312 0.503906 3.082031 0.421875 2.523438 0.265625 C 1.957031 0.105469 1.472656 -0.113281 1.070312 -0.398438 C 0.652344 -0.6875 0.339844 -1.027344 0.136719 -1.410156 L 0.0273438 -1.613281 L 1.582031 -3.292969 L 2.066406 -3.292969 L 2.164062 -3.160156 C 2.441406 -2.785156 2.769531 -2.503906 3.144531 -2.320312 C 3.523438 -2.132812 3.933594 -2.039062 4.378906 -2.039062 C 4.765625 -2.039062 5.046875 -2.101562 5.222656 -2.226562 C 5.292969 -2.277344 5.34375 -2.335938 5.378906 -2.402344 C 5.414062 -2.472656 5.433594 -2.5625 5.433594 -2.664062 C 5.433594 -2.808594 5.382812 -2.929688 5.28125 -3.023438 C 5.15625 -3.144531 4.9375 -3.242188 4.625 -3.320312 L 3.390625 -3.613281 C 2.402344 -3.851562 1.675781 -4.21875 1.203125 -4.71875 C 0.71875 -5.234375 0.476562 -5.886719 0.476562 -6.667969 C 0.476562 -7.316406 0.644531 -7.882812 0.980469 -8.367188 C 1.3125 -8.847656 1.777344 -9.210938 2.371094 -9.460938 C 2.949219 -9.703125 3.621094 -9.824219 4.378906 -9.824219 C 5.265625 -9.824219 6.003906 -9.695312 6.597656 -9.433594 C 7.199219 -9.171875 7.675781 -8.8125 8.019531 -8.363281 L 8.183594 -8.144531 L 6.652344 -6.488281 L 6.195312 -6.488281 L 6.097656 -6.597656 C 5.871094 -6.855469 5.617188 -7.039062 5.339844 -7.15625 C 5.054688 -7.273438 4.734375 -7.335938 4.378906 -7.335938 C 3.976562 -7.335938 3.6875 -7.277344 3.511719 -7.167969 C 3.445312 -7.125 3.394531 -7.078125 3.363281 -7.019531 C 3.332031 -6.960938 3.316406 -6.886719 3.316406 -6.796875 C 3.316406 -6.652344 3.367188 -6.535156 3.464844 -6.449219 C 3.59375 -6.332031 3.851562 -6.234375 4.230469 -6.148438 L 5.378906 -5.894531 C 6.386719 -5.679688 7.132812 -5.324219 7.617188 -4.828125 C 8.113281 -4.316406 8.363281 -3.640625 8.363281 -2.796875 C 8.363281 -2.140625 8.199219 -1.5625 7.871094 -1.058594 C 7.542969 -0.550781 7.074219 -0.164062 6.464844 0.105469 C 5.867188 0.371094 5.167969 0.503906 4.363281 0.503906 Z M 4.363281 -0.148438 C 5.078125 -0.148438 5.6875 -0.261719 6.199219 -0.488281 C 6.695312 -0.707031 7.070312 -1.015625 7.328125 -1.410156 C 7.585938 -1.808594 7.714844 -2.269531 7.714844 -2.796875 C 7.714844 -3.464844 7.527344 -3.992188 7.152344 -4.375 C 6.761719 -4.777344 6.121094 -5.074219 5.238281 -5.261719 L 4.089844 -5.515625 C 3.601562 -5.625 3.25 -5.773438 3.035156 -5.960938 C 2.789062 -6.179688 2.667969 -6.457031 2.667969 -6.796875 C 2.667969 -6.996094 2.710938 -7.171875 2.792969 -7.328125 C 2.878906 -7.484375 3.003906 -7.617188 3.167969 -7.71875 C 3.449219 -7.894531 3.855469 -7.984375 4.378906 -7.984375 C 4.820312 -7.984375 5.226562 -7.90625 5.589844 -7.753906 C 5.960938 -7.601562 6.289062 -7.359375 6.582031 -7.027344 L 6.339844 -6.8125 L 6.339844 -7.136719 L 6.507812 -7.136719 L 6.507812 -6.8125 L 6.269531 -7.035156 L 7.523438 -8.386719 L 7.761719 -8.164062 L 7.503906 -7.96875 C 7.226562 -8.332031 6.835938 -8.621094 6.335938 -8.839844 C 5.824219 -9.066406 5.171875 -9.175781 4.378906 -9.175781 C 3.707031 -9.175781 3.121094 -9.074219 2.625 -8.863281 C 2.144531 -8.664062 1.773438 -8.375 1.515625 -8 C 1.257812 -7.625 1.128906 -7.183594 1.128906 -6.667969 C 1.128906 -6.054688 1.3125 -5.554688 1.679688 -5.164062 C 2.058594 -4.757812 2.679688 -4.453125 3.542969 -4.246094 L 4.777344 -3.949219 C 5.207031 -3.847656 5.523438 -3.695312 5.734375 -3.492188 C 5.964844 -3.269531 6.082031 -2.992188 6.082031 -2.664062 C 6.082031 -2.460938 6.042969 -2.277344 5.960938 -2.117188 C 5.878906 -1.949219 5.757812 -1.808594 5.597656 -1.695312 C 5.308594 -1.492188 4.902344 -1.390625 4.378906 -1.390625 C 3.832031 -1.390625 3.324219 -1.507812 2.855469 -1.738281 C 2.386719 -1.96875 1.984375 -2.316406 1.640625 -2.773438 L 1.902344 -2.96875 L 1.902344 -2.640625 L 1.722656 -2.640625 L 1.722656 -2.96875 L 1.960938 -2.746094 L 0.660156 -1.34375 L 0.421875 -1.5625 L 0.710938 -1.714844 C 0.863281 -1.425781 1.109375 -1.160156 1.441406 -0.929688 C 1.785156 -0.6875 2.207031 -0.5 2.699219 -0.359375 C 3.199219 -0.21875 3.753906 -0.148438 4.363281 -0.148438 Z M 4.363281 -0.148438 "/></g></g></g><g fill="#004aad" fill-opacity="1"><g transform="translate(42.980489, 18.710859)"><g><path d="M 2.511719 -10.113281 C 2 -10.113281 1.582031 -10.273438 1.253906 -10.589844 C 0.921875 -10.910156 0.757812 -11.320312 0.757812 -11.816406 C 0.757812 -12.308594 0.921875 -12.714844 1.253906 -13.035156 C 1.582031 -13.351562 2 -13.511719 2.511719 -13.511719 C 2.847656 -13.511719 3.148438 -13.441406 3.417969 -13.296875 C 3.691406 -13.148438 3.902344 -12.945312 4.054688 -12.6875 C 4.207031 -12.433594 4.28125 -12.140625 4.28125 -11.816406 C 4.28125 -11.496094 4.207031 -11.203125 4.054688 -10.945312 C 3.902344 -10.683594 3.691406 -10.480469 3.417969 -10.332031 C 3.148438 -10.1875 2.847656 -10.113281 2.511719 -10.113281 Z M 2.511719 -10.765625 C 2.738281 -10.765625 2.9375 -10.8125 3.109375 -10.902344 C 3.273438 -10.992188 3.402344 -11.113281 3.492188 -11.269531 C 3.585938 -11.429688 3.632812 -11.609375 3.632812 -11.816406 C 3.632812 -12.023438 3.585938 -12.203125 3.496094 -12.359375 C 3.402344 -12.511719 3.277344 -12.632812 3.109375 -12.722656 C 2.9375 -12.816406 2.738281 -12.863281 2.511719 -12.863281 C 2.175781 -12.863281 1.90625 -12.765625 1.707031 -12.570312 C 1.507812 -12.375 1.40625 -12.125 1.40625 -11.816406 C 1.40625 -11.503906 1.507812 -11.25 1.707031 -11.058594 C 1.90625 -10.863281 2.175781 -10.765625 2.511719 -10.765625 Z M 1.019531 0 L 1.019531 -9.648438 L 4.011719 -9.648438 L 4.011719 0.324219 L 1.019531 0.324219 Z M 1.667969 0 L 1.34375 0 L 1.34375 -0.324219 L 3.6875 -0.324219 L 3.6875 0 L 3.359375 0 L 3.359375 -9.324219 L 3.6875 -9.324219 L 3.6875 -9 L 1.34375 -9 L 1.34375 -9.324219 L 1.667969 -9.324219 Z M 1.667969 0 "/></g></g></g></g></g></svg>