<svg xmlns="http://www.w3.org/2000/svg" xmlns:xlink="http://www.w3.org/1999/xlink" width="500" zoomAndPan="magnify" viewBox="0 0 375 374.999991" height="500" preserveAspectRatio="xMidYMid meet" version="1.0"><defs><clipPath id="e09037bf3e"><path d="M 138 126.632812 L 237 126.632812 L 237 248.132812 L 138 248.132812 Z M 138 126.632812 " clip-rule="nonzero"/></clipPath><clipPath id="60bea9ec66"><path d="M 139 229 L 171 229 L 171 248.132812 L 139 248.132812 Z M 139 229 " clip-rule="nonzero"/></clipPath><clipPath id="2b6fdb913a"><path d="M 204 229 L 236 229 L 236 248.132812 L 204 248.132812 Z M 204 229 " clip-rule="nonzero"/></clipPath><clipPath id="908530e740"><path d="M 210 143 L 255.707031 143 L 255.707031 233 L 210 233 Z M 210 143 " clip-rule="nonzero"/></clipPath><clipPath id="32c502a84c"><path d="M 119.207031 143 L 165 143 L 165 233 L 119.207031 233 Z M 119.207031 143 " clip-rule="nonzero"/></clipPath></defs><rect x="-37.5" width="450" fill="#ffffff" y="-37.499999" height="449.999989" fill-opacity="1"/><rect x="-37.5" width="450" fill="#ffffff" y="-37.499999" height="449.999989" fill-opacity="1"/><g clip-path="url(#e09037bf3e)"><path fill="#ff3131" d="M 236.566406 212.613281 C 236.382812 208.574219 236.003906 204.558594 235.410156 200.566406 C 234.4375 193.980469 232.742188 187.550781 230.664062 181.234375 C 227.78125 172.464844 224.140625 163.996094 219.84375 155.820312 C 218.875 153.976562 217.882812 152.152344 216.867188 150.335938 C 216.554688 149.777344 216.808594 149.636719 217.289062 149.570312 C 217.375 149.390625 217.300781 149.253906 217.148438 149.167969 C 215.960938 148.515625 214.648438 148.507812 213.351562 148.441406 C 212.980469 148.421875 212.789062 148.722656 212.664062 149.042969 C 212.300781 150.003906 211.742188 150.097656 211.007812 149.417969 C 210.238281 148.136719 210.527344 146.816406 210.847656 145.492188 C 210.886719 145.382812 210.925781 145.269531 210.953125 145.15625 C 211.015625 144.933594 211.085938 144.714844 211.160156 144.496094 C 211.199219 144.390625 211.234375 144.28125 211.257812 144.167969 C 211.789062 142.257812 212.433594 140.394531 213.441406 138.683594 C 213.328125 139.757812 212.804688 140.675781 212.429688 141.644531 C 212.167969 142.316406 211.75 142.976562 212.148438 143.734375 C 213.613281 145.238281 215.492188 145.6875 217.046875 144.910156 C 216.984375 144.859375 216.925781 144.789062 216.855469 144.765625 C 215.78125 144.441406 215.785156 144.445312 216.035156 143.375 C 216.375 141.957031 216.726562 140.539062 217.039062 139.113281 C 217.441406 137.285156 217.78125 135.449219 217.613281 133.558594 C 217.464844 131.859375 216.394531 130.628906 214.742188 130.261719 C 214.609375 130.46875 214.480469 130.652344 214.210938 130.71875 C 212.785156 131.058594 211.429688 131.613281 210.035156 132.042969 C 207.4375 132.839844 204.835938 132.714844 202.21875 132.1875 C 201.664062 132.074219 201.230469 131.929688 201.351562 131.238281 C 201.140625 131.179688 200.933594 131.222656 200.761719 131.328125 C 200.019531 131.804688 199.335938 131.675781 198.589844 131.269531 C 197.300781 130.570312 196.082031 129.761719 194.859375 128.964844 C 190.675781 126.238281 186.289062 125.933594 181.738281 127.878906 C 180.054688 128.597656 178.574219 129.703125 177.039062 130.695312 C 176.117188 131.289062 175.195312 131.894531 174.011719 131.734375 C 170.917969 132.679688 167.808594 132.988281 164.644531 132.042969 C 163.164062 131.597656 161.777344 130.839844 160.207031 130.699219 C 159.867188 130.667969 160.09375 130.375 159.957031 130.261719 C 158.121094 130.644531 156.972656 131.960938 156.921875 133.820312 C 156.894531 134.878906 157.035156 135.933594 157.242188 136.972656 C 157.691406 139.242188 158.15625 141.511719 158.664062 143.773438 C 158.792969 144.347656 158.660156 144.628906 158.089844 144.71875 C 157.929688 144.742188 157.769531 144.761719 157.664062 144.910156 C 158.445312 145.589844 159.296875 144.972656 160.109375 145.042969 C 161.152344 145.136719 161.917969 144.726562 162.351562 143.75 C 162.882812 142.988281 162.523438 142.289062 162.246094 141.558594 C 161.871094 140.578125 161.21875 139.679688 161.328125 138.535156 C 161.871094 140.25 162.90625 141.777344 163.183594 143.589844 C 163.5 144.640625 163.828125 145.6875 164.011719 146.773438 C 164.15625 147.660156 163.996094 148.492188 163.550781 149.242188 C 163.074219 150.050781 162.464844 150.054688 162.050781 149.226562 C 161.714844 148.554688 161.257812 148.378906 160.570312 148.480469 C 159.84375 148.589844 159.117188 148.6875 158.417969 148.898438 C 158.09375 148.996094 157.53125 148.949219 157.65625 149.589844 C 157.882812 149.71875 158.425781 149.585938 158.121094 150.15625 C 157.96875 150.441406 157.832031 150.738281 157.671875 151.023438 C 154.074219 157.328125 150.824219 163.796875 148.0625 170.519531 C 145.179688 177.539062 142.699219 184.683594 140.972656 192.078125 C 140.203125 195.371094 139.601562 198.691406 139.15625 202.046875 C 138.734375 205.195312 138.328125 208.347656 138.238281 211.523438 C 138.125 215.558594 138.03125 219.597656 138.503906 223.617188 C 138.742188 225.671875 139.074219 227.710938 139.65625 229.703125 C 140.464844 229.441406 141.234375 229.570312 142.046875 229.8125 C 147.375 231.382812 152 234.285156 156.460938 237.464844 C 160.148438 240.09375 163.632812 243 167.371094 245.566406 C 168.226562 246.15625 169.054688 246.792969 170.066406 247.640625 C 169.355469 247.527344 169 247.320312 168.679688 247.078125 C 166.890625 245.730469 165 244.523438 163.226562 243.140625 C 158.566406 239.496094 153.902344 235.84375 148.660156 233.046875 C 145.859375 231.550781 142.949219 230.289062 139.726562 229.96875 C 140.691406 233.976562 142.597656 237.472656 145.433594 240.464844 C 148.183594 243.371094 151.679688 244.972656 155.421875 246.125 C 158.117188 246.953125 160.882812 247.457031 163.679688 247.769531 C 165.867188 248.015625 168.066406 248.285156 170.261719 248.300781 C 178.339844 248.355469 186.417969 248.339844 194.496094 248.296875 C 199.226562 248.269531 203.960938 248.566406 208.679688 248.074219 C 212.332031 247.695312 215.957031 247.183594 219.484375 246.109375 C 224.285156 244.648438 228.511719 242.328125 231.40625 238.0625 C 233.082031 235.585938 234.464844 232.964844 234.992188 229.976562 C 233.828125 229.824219 232.746094 230.21875 231.679688 230.5625 C 227.71875 231.847656 224.183594 233.972656 220.753906 236.269531 C 215.90625 239.523438 211.421875 243.273438 206.710938 246.71875 C 206.238281 247.066406 205.792969 247.476562 205.148438 247.59375 C 205.179688 247.230469 205.421875 247.113281 205.609375 246.980469 C 210.375 243.613281 214.847656 239.84375 219.621094 236.484375 C 223.605469 233.675781 227.816406 231.277344 232.496094 229.796875 C 233.347656 229.527344 234.214844 229.160156 235.019531 229.921875 C 235.074219 229.867188 235.164062 229.8125 235.175781 229.746094 C 235.707031 226.945312 236.296875 224.148438 236.4375 221.292969 C 236.582031 218.402344 236.695312 215.515625 236.566406 212.613281 Z M 236.566406 212.613281 " fill-opacity="1" fill-rule="evenodd"/></g><g clip-path="url(#60bea9ec66)"><path fill="#8d4918" d="M 169.636719 246.875 C 166.191406 244.28125 162.621094 241.859375 159.265625 239.144531 C 156.890625 237.226562 154.347656 235.523438 151.753906 233.925781 C 149.195312 232.351562 146.515625 230.960938 143.65625 230 C 142.628906 229.65625 141.625 229.148438 140.484375 229.1875 C 140.078125 229.203125 139.753906 229.246094 139.65625 229.703125 C 139.679688 229.792969 139.703125 229.882812 139.726562 229.96875 C 140.074219 230.078125 140.296875 230.398438 140.707031 230.429688 C 142.480469 230.546875 144.066406 231.347656 145.679688 231.984375 C 147.675781 232.773438 149.546875 233.824219 151.371094 234.984375 C 153.640625 236.429688 155.859375 237.933594 158.011719 239.539062 C 161.332031 242.023438 164.574219 244.613281 167.96875 246.996094 C 168.46875 247.34375 168.964844 247.707031 169.550781 247.914062 C 169.851562 248.019531 170.15625 248.167969 170.5 247.820312 C 170.351562 247.390625 169.988281 247.136719 169.636719 246.875 Z M 169.636719 246.875 " fill-opacity="1" fill-rule="evenodd"/></g><path fill="#8d4918" d="M 195.609375 165.007812 C 194.664062 161.109375 193.1875 157.421875 191.394531 153.851562 C 190.941406 152.949219 190.425781 152.066406 189.757812 151.28125 C 188.515625 149.824219 186.4375 149.859375 185.101562 151.125 C 183.957031 152.207031 183.214844 153.574219 182.582031 154.992188 C 181.101562 158.300781 179.738281 161.648438 178.945312 165.207031 C 178.246094 168.347656 177.582031 171.488281 177.652344 174.617188 C 177.652344 175.589844 177.648438 176.445312 177.65625 177.300781 C 177.660156 177.582031 177.652344 177.925781 178.046875 177.945312 C 178.460938 177.964844 178.605469 177.660156 178.625 177.304688 C 178.644531 176.9375 178.648438 176.570312 178.636719 176.203125 C 178.570312 174.242188 178.667969 172.285156 178.976562 170.355469 C 179.359375 167.949219 179.832031 165.5625 180.554688 163.21875 C 181.464844 160.25 182.46875 157.324219 184.003906 154.621094 C 184.640625 153.5 185.300781 152.371094 186.460938 151.640625 C 187.160156 151.199219 187.769531 151.265625 188.394531 151.667969 C 188.664062 151.84375 188.898438 152.085938 189.117188 152.328125 C 190.558594 153.921875 191.386719 155.875 192.183594 157.824219 C 193.644531 161.40625 194.832031 165.074219 195.429688 168.914062 C 195.710938 170.722656 196.078125 172.515625 196.046875 174.359375 C 196.03125 175.296875 196.042969 176.238281 196.054688 177.175781 C 196.058594 177.617188 195.988281 178.203125 196.632812 178.175781 C 197.230469 178.152344 197.027344 177.570312 197.039062 177.203125 C 197.199219 173.066406 196.585938 169.023438 195.609375 165.007812 Z M 195.609375 165.007812 " fill-opacity="1" fill-rule="evenodd"/><g clip-path="url(#2b6fdb913a)"><path fill="#8d4918" d="M 234.601562 229.078125 C 234.039062 229.082031 233.449219 229.125 232.917969 229.304688 C 230.996094 229.945312 229.082031 230.632812 227.265625 231.527344 C 223.3125 233.480469 219.671875 235.941406 216.175781 238.605469 C 212.910156 241.09375 209.71875 243.679688 206.34375 246.019531 C 205.777344 246.414062 205.261719 246.882812 204.738281 247.332031 C 204.5625 247.484375 204.316406 247.6875 204.511719 247.941406 C 204.675781 248.152344 204.972656 248.097656 205.195312 247.992188 C 205.601562 247.804688 206.019531 247.621094 206.375 247.359375 C 208.078125 246.105469 209.765625 244.832031 211.449219 243.558594 C 215.433594 240.542969 219.300781 237.363281 223.621094 234.808594 C 226 233.398438 228.40625 232.074219 231.019531 231.117188 C 232.324219 230.636719 233.707031 230.492188 234.992188 229.976562 C 234.992188 229.976562 235.019531 229.921875 235.019531 229.925781 C 234.882812 229.636719 235.203125 229.074219 234.601562 229.078125 Z M 234.601562 229.078125 " fill-opacity="1" fill-rule="evenodd"/></g><path fill="#8d4918" d="M 157.167969 184.058594 C 157.445312 184.113281 157.640625 183.960938 157.734375 183.710938 C 157.789062 183.5625 157.808594 183.394531 157.8125 183.234375 C 157.878906 180.222656 158.296875 177.25 158.78125 174.28125 C 159.402344 170.464844 160.289062 166.710938 161.3125 162.988281 C 161.960938 160.636719 162.667969 158.300781 163.34375 155.957031 C 163.457031 155.578125 163.699219 155.039062 163.261719 154.875 C 162.761719 154.683594 162.707031 155.328125 162.523438 155.652344 C 162.386719 155.894531 162.304688 156.175781 162.21875 156.445312 C 161.808594 157.726562 161.378906 158.996094 161.011719 160.289062 C 160.421875 162.359375 159.800781 164.421875 159.335938 166.519531 C 158.640625 169.648438 157.871094 172.765625 157.476562 175.957031 C 157.222656 177.972656 156.910156 179.976562 156.839844 182.011719 C 156.839844 182.542969 156.835938 183.070312 156.84375 183.601562 C 156.847656 183.816406 156.929688 184.011719 157.167969 184.058594 Z M 157.167969 184.058594 " fill-opacity="1" fill-rule="evenodd"/><path fill="#8d4918" d="M 212.070312 154.878906 C 211.90625 154.644531 211.632812 154.480469 211.328125 154.632812 C 211.019531 154.78125 210.972656 155.0625 211.097656 155.359375 C 211.820312 157.082031 212.300781 158.886719 212.828125 160.671875 C 213.46875 162.847656 214.148438 165.03125 214.574219 167.257812 C 214.945312 169.207031 215.394531 171.140625 215.730469 173.101562 C 216.238281 176.0625 216.730469 179.015625 216.886719 182.019531 C 216.914062 182.542969 217.03125 183.0625 217.132812 183.582031 C 217.183594 183.832031 217.328125 184.050781 217.625 184.019531 C 217.914062 183.992188 218.019531 183.765625 218.054688 183.507812 C 218.074219 183.390625 218.070312 183.265625 218.082031 183.082031 C 218.015625 182.457031 217.804688 181.789062 217.847656 181.089844 C 217.914062 179.941406 217.703125 178.804688 217.492188 177.703125 C 217.101562 175.628906 216.820312 173.539062 216.441406 171.464844 C 215.453125 166.097656 213.898438 160.886719 212.398438 155.660156 C 212.320312 155.386719 212.226562 155.105469 212.070312 154.878906 Z M 212.070312 154.878906 " fill-opacity="1" fill-rule="evenodd"/><path fill="#8d4918" d="M 212.15625 143.5 C 212.203125 142.925781 212.425781 142.402344 212.652344 141.886719 C 213.070312 140.921875 213.5 139.964844 213.9375 139.007812 C 214.082031 138.695312 214.210938 138.378906 213.839844 138.160156 C 213.433594 137.921875 213.136719 138.171875 212.921875 138.488281 C 212.789062 138.683594 212.722656 138.925781 212.636719 139.152344 C 212.335938 139.945312 211.996094 140.726562 211.75 141.535156 C 211.464844 142.496094 210.925781 143.390625 210.984375 144.441406 C 211.375 144.125 211.503906 143.484375 212.15625 143.5 Z M 212.15625 143.5 " fill-opacity="1" fill-rule="evenodd"/><path fill="#8d4918" d="M 160.757812 138.695312 C 160.746094 138.992188 160.878906 139.246094 160.996094 139.503906 C 161.363281 140.316406 161.742188 141.125 162.070312 141.953125 C 162.253906 142.421875 162.597656 142.898438 162.226562 143.433594 C 162.625 143.488281 163.039062 143.113281 163.425781 143.480469 C 163.648438 142.8125 163.136719 142.328125 162.96875 141.765625 C 162.632812 140.644531 162.058594 139.605469 161.792969 138.457031 C 161.722656 138.136719 161.488281 137.828125 161.101562 137.902344 C 160.652344 137.984375 160.769531 138.386719 160.757812 138.695312 Z M 160.757812 138.695312 " fill-opacity="1" fill-rule="evenodd"/><path fill="#3d1700" d="M 214.742188 130.261719 C 213.804688 129.867188 212.851562 129.507812 211.9375 129.074219 C 209.066406 127.710938 206.378906 128.113281 203.808594 129.84375 C 203.597656 129.925781 203.421875 130.078125 203.21875 130.179688 C 203.007812 130.308594 202.800781 130.4375 202.589844 130.566406 C 202.371094 130.648438 202.203125 130.824219 201.984375 130.902344 C 201.773438 131.015625 201.5625 131.125 201.351562 131.238281 C 201.230469 131.601562 200.660156 131.492188 200.597656 132.03125 C 203.007812 132.847656 205.46875 133.160156 208.011719 132.824219 C 210.511719 132.492188 212.75 131.238281 215.277344 130.851562 C 215.058594 130.609375 214.898438 130.433594 214.742188 130.261719 Z M 214.742188 130.261719 " fill-opacity="1" fill-rule="evenodd"/><path fill="#3d1700" d="M 169.398438 129.074219 C 167.675781 128.074219 165.847656 127.96875 163.988281 128.636719 C 163.035156 128.976562 162.109375 129.394531 161.167969 129.78125 C 160.828125 129.953125 160.453125 130.058594 160.105469 130.214844 C 160.054688 130.222656 160.003906 130.238281 159.957031 130.261719 C 159.871094 130.609375 159.359375 130.507812 159.289062 130.964844 C 160.882812 130.902344 162.300781 131.542969 163.722656 132.101562 C 166.914062 133.351562 170.121094 133.023438 173.347656 132.34375 C 173.6875 132.273438 173.964844 132.125 174.011719 131.734375 C 173.820312 131.683594 173.636719 131.652344 173.453125 131.539062 C 172.109375 130.699219 170.765625 129.867188 169.398438 129.074219 Z M 169.398438 129.074219 " fill-opacity="1" fill-rule="evenodd"/><path fill="#3d1700" d="M 198.53125 145.566406 C 198.480469 144.34375 197.84375 143.238281 196.96875 143.019531 C 195.882812 142.75 194.941406 143.007812 194.324219 144.03125 C 194.082031 144.4375 193.703125 144.484375 193.273438 144.492188 C 189.398438 144.566406 185.527344 144.699219 181.652344 144.644531 C 181.003906 144.632812 180.550781 144.523438 180.148438 143.894531 C 179.457031 142.808594 178.15625 142.632812 177.160156 143.332031 C 175.394531 144.582031 175.667969 147.265625 176.816406 148.308594 C 177.6875 149.097656 179.085938 149.144531 179.753906 148.214844 C 180.28125 147.488281 180.890625 147.421875 181.652344 147.425781 C 185.402344 147.445312 189.15625 147.457031 192.910156 147.433594 C 193.648438 147.429688 194.199219 147.585938 194.734375 148.164062 C 195.683594 149.191406 197.171875 149.003906 198.011719 147.890625 C 198.460938 147.300781 198.582031 146.644531 198.53125 145.925781 C 198.53125 145.808594 198.539062 145.6875 198.53125 145.566406 Z M 198.53125 145.566406 " fill-opacity="1" fill-rule="evenodd"/><g clip-path="url(#908530e740)"><path fill="#3d1700" d="M 255.378906 229.160156 C 254.550781 227.75 253.699219 226.359375 252.839844 224.972656 C 252.507812 224.441406 252.523438 224.09375 253.066406 223.640625 C 254.242188 222.664062 254.488281 221.148438 253.835938 219.757812 C 253.359375 218.75 252.59375 218.03125 251.558594 217.652344 C 251.015625 217.453125 250.816406 217.148438 250.769531 216.585938 C 250.617188 214.675781 250.347656 212.769531 250.234375 210.859375 C 249.820312 203.8125 249.566406 196.757812 248.757812 189.734375 C 248.019531 183.316406 246.941406 176.980469 245.070312 170.785156 C 243.5 165.585938 241.269531 160.722656 237.976562 156.375 C 232.707031 149.429688 225.617188 145.816406 217.046875 144.910156 C 215.910156 145.085938 214.800781 144.742188 213.671875 144.722656 C 213.457031 144.71875 213.253906 144.601562 213.214844 144.390625 C 213.105469 143.785156 212.511719 143.792969 212.15625 143.5 C 211.195312 143.101562 211.292969 144.027344 210.984375 144.441406 L 210.984375 144.449219 C 210.769531 144.644531 210.976562 144.988281 210.730469 145.171875 L 210.730469 145.179688 C 210.367188 146.644531 210.054688 148.113281 210.75 149.574219 C 210.890625 149.832031 211.097656 150.023438 211.355469 150.148438 C 212.042969 150.492188 212.636719 150.242188 212.890625 149.515625 C 213.175781 148.679688 213.175781 148.683594 214.054688 148.796875 C 214.335938 148.835938 214.628906 148.8125 214.898438 148.878906 C 215.703125 149.085938 216.582031 149.027344 217.289062 149.570312 C 217.332031 149.589844 217.378906 149.601562 217.425781 149.605469 C 217.773438 149.773438 218.148438 149.882812 218.503906 150.042969 C 218.589844 150.191406 218.710938 150.265625 218.878906 150.324219 C 221.101562 151.074219 223.046875 152.320312 224.878906 153.753906 C 228.523438 156.597656 231.140625 160.273438 233.179688 164.355469 C 236.144531 170.289062 237.742188 176.640625 238.648438 183.183594 C 239.390625 188.519531 239.636719 193.902344 240.15625 199.261719 C 240.488281 202.667969 240.921875 206.066406 241.804688 209.390625 C 242.578125 212.316406 243.65625 215.128906 245.007812 217.832031 C 245.28125 218.375 245.445312 218.804688 244.917969 219.351562 C 244.167969 220.136719 244.171875 221.152344 244.527344 222.113281 C 245.027344 223.449219 245.980469 224.355469 247.371094 224.757812 C 248.566406 225.109375 248.566406 225.101562 248.722656 226.371094 C 248.933594 228.113281 249.132812 229.855469 249.375 231.59375 C 249.527344 232.703125 250.378906 233.207031 251.414062 232.898438 C 251.964844 232.734375 252.097656 232.257812 252.328125 231.84375 C 252.695312 231.679688 252.308594 231.183594 252.714844 231.015625 C 253.4375 231.390625 254.109375 232.296875 255.050781 231.375 C 255.925781 230.496094 255.988281 230.203125 255.378906 229.160156 Z M 247.617188 215.359375 C 247.128906 215.292969 247.0625 214.910156 246.925781 214.613281 C 245.480469 211.570312 244.625 208.347656 244.050781 205.039062 C 243.09375 199.5625 242.777344 194.019531 242.3125 188.492188 C 241.773438 182.09375 240.746094 175.769531 238.683594 169.671875 C 236.9375 164.507812 234.496094 159.675781 231.03125 155.410156 C 230.023438 154.171875 228.886719 153.0625 227.679688 152.023438 C 227.21875 151.628906 226.769531 151.222656 226.3125 150.824219 C 227.550781 151.066406 228.5 151.691406 229.429688 152.347656 C 234.414062 155.867188 237.734375 160.671875 240.128906 166.199219 C 242.761719 172.273438 244.121094 178.675781 245.125 185.183594 C 246.25 192.457031 246.585938 199.789062 247.019531 207.121094 C 247.171875 209.683594 247.21875 212.261719 247.613281 214.804688 C 247.636719 214.964844 247.617188 215.128906 247.617188 215.359375 Z M 247.617188 215.359375 " fill-opacity="1" fill-rule="evenodd"/></g><g clip-path="url(#32c502a84c)"><path fill="#3d1700" d="M 163.425781 143.480469 C 163.054688 142.699219 162.632812 143.273438 162.226562 143.433594 C 161.910156 143.597656 161.769531 143.882812 161.679688 144.207031 C 161.609375 144.460938 161.429688 144.691406 161.167969 144.65625 C 159.980469 144.511719 158.847656 145.03125 157.664062 144.910156 C 156.3125 144.988281 155.007812 145.335938 153.695312 145.636719 C 147.652344 147.019531 142.617188 150.128906 138.5 154.710938 C 135.269531 158.304688 133.046875 162.519531 131.335938 167.015625 C 129 173.152344 127.652344 179.535156 126.78125 186.015625 C 125.925781 192.367188 125.496094 198.761719 125.203125 205.167969 C 125.03125 208.957031 124.699219 212.742188 124.472656 216.53125 C 124.4375 217.164062 124.195312 217.507812 123.609375 217.683594 C 122.796875 217.925781 122.179688 218.453125 121.691406 219.128906 C 120.707031 220.488281 120.8125 222.394531 122.066406 223.464844 C 122.65625 223.96875 122.636719 224.316406 122.28125 224.878906 C 121.367188 226.324219 120.542969 227.828125 119.546875 229.226562 C 119.03125 229.949219 119.132812 230.632812 119.703125 231.222656 C 120.226562 231.765625 120.988281 231.816406 121.730469 231.394531 C 121.988281 231.25 122.082031 230.828125 122.523438 230.929688 C 122.542969 231.09375 122.550781 231.257812 122.582031 231.414062 C 122.816406 232.5 123.285156 232.929688 124.191406 232.894531 C 125.074219 232.855469 125.515625 232.355469 125.65625 231.265625 C 125.890625 229.445312 126.1875 227.632812 126.367188 225.808594 C 126.441406 225.070312 126.636719 224.703125 127.425781 224.632812 C 128.492188 224.535156 129.320312 223.914062 130.027344 223.148438 C 131.0625 222.019531 131.210938 220.453125 130.320312 219.21875 C 129.984375 218.75 129.953125 218.441406 130.210938 217.917969 C 132.566406 213.109375 133.957031 208.023438 134.609375 202.710938 C 135.253906 197.480469 135.40625 192.214844 135.980469 186.980469 C 136.542969 181.855469 137.378906 176.792969 138.914062 171.863281 C 140.394531 167.117188 142.488281 162.679688 145.46875 158.671875 C 148.632812 154.417969 152.726562 151.453125 157.652344 149.589844 C 158.605469 148.980469 159.722656 149.011719 160.773438 148.785156 C 161.398438 148.652344 161.640625 148.789062 161.734375 149.449219 C 161.84375 150.199219 162.277344 150.449219 162.902344 150.3125 C 163.292969 150.230469 163.535156 149.949219 163.734375 149.644531 C 164.3125 148.761719 164.480469 147.78125 164.332031 146.738281 C 164.167969 145.613281 163.890625 144.523438 163.425781 143.480469 Z M 147.761719 151.761719 C 143.945312 155.179688 140.980469 159.234375 138.820312 163.871094 C 136.390625 169.074219 134.753906 174.523438 133.824219 180.1875 C 132.894531 185.832031 132.507812 191.53125 132.066406 197.222656 C 131.695312 202.03125 131.023438 206.792969 129.605469 211.417969 C 129.1875 212.777344 128.671875 214.097656 128.019531 215.347656 C 127.554688 215.285156 127.707031 214.972656 127.71875 214.777344 C 128.144531 208.710938 128.28125 202.632812 128.757812 196.570312 C 129.058594 192.742188 129.371094 188.921875 129.945312 185.128906 C 130.96875 178.378906 132.441406 171.738281 135.246094 165.464844 C 137.097656 161.324219 139.613281 157.636719 142.984375 154.578125 C 144.375 153.316406 145.90625 152.234375 147.527344 151.285156 C 147.707031 151.164062 147.917969 151.152344 148.015625 151.347656 C 148.113281 151.546875 147.957031 151.691406 147.761719 151.761719 Z M 147.761719 151.761719 " fill-opacity="1" fill-rule="evenodd"/></g></svg>