<svg xmlns="http://www.w3.org/2000/svg" xmlns:xlink="http://www.w3.org/1999/xlink" width="500" zoomAndPan="magnify" viewBox="0 0 375 374.999991" height="500" preserveAspectRatio="xMidYMid meet" version="1.0"><defs><clipPath id="c57bb0a4b6"><path d="M 112.5 112.6875 L 199 112.6875 L 199 240 L 112.5 240 Z M 112.5 112.6875 " clip-rule="nonzero"/></clipPath></defs><rect x="-37.5" width="450" fill="#ffffff" y="-37.499999" height="449.999989" fill-opacity="1"/><rect x="-37.5" width="450" fill="#ffffff" y="-37.499999" height="449.999989" fill-opacity="1"/><path fill="#92c538" d="M 156.933594 167.417969 L 156.886719 167.300781 C 150.984375 166.527344 145.292969 163.261719 141.757812 158.40625 C 136.140625 150.609375 135.882812 139.601562 140.167969 130.988281 C 145.292969 120.679688 156.699219 113.851562 168.195312 114.179688 C 179.667969 114.53125 190.648438 121.996094 195.191406 132.605469 C 199.710938 143.191406 197.558594 156.316406 189.855469 164.90625 C 183.882812 171.574219 175.640625 175.023438 167.164062 178.285156 L 167.140625 178.285156 C 159.4375 181.269531 151.570312 184.039062 145.035156 188.898438 C 142.53125 190.773438 140.421875 192.910156 138.644531 195.234375 C 135.085938 199.8125 132.859375 205.046875 131.527344 210.046875 C 130.566406 213.523438 130.050781 216.878906 129.792969 219.835938 C 129.324219 225.257812 129.792969 229.390625 130.308594 230.515625 C 131.339844 232.792969 131.738281 236.644531 129.089844 238.027344 C 128.644531 238.261719 128.128906 238.382812 127.640625 238.308594 C 125.601562 237.957031 124.992188 235.375 124.476562 233.734375 C 121.597656 224.015625 120.707031 213.96875 123.332031 204.085938 C 123.402344 203.875 123.449219 203.640625 123.519531 203.429688 C 124.101562 201.363281 124.804688 199.34375 125.578125 197.347656 C 126.609375 194.765625 127.871094 192.277344 129.300781 189.90625 C 134.945312 180.539062 143.539062 172.980469 153.582031 168.710938 C 154.683594 168.238281 155.808594 167.816406 156.933594 167.417969 Z M 156.933594 167.417969 " fill-opacity="1" fill-rule="nonzero"/><path fill="#609000" d="M 195.191406 132.605469 C 192.8125 127.042969 188.652344 122.363281 183.589844 119.101562 C 187.230469 122.984375 190.136719 127.480469 191.824219 132.644531 C 195.8125 144.851562 190.664062 159.929688 179.46875 166.460938 C 173.136719 170.152344 165.851562 171.578125 158.890625 173.570312 C 152.53125 175.390625 146.394531 178.230469 141.292969 182.523438 C 125.703125 195.652344 122.746094 218.914062 129.21875 237.933594 C 131.703125 236.484375 131.320312 232.75 130.308594 230.515625 C 129.792969 229.390625 129.324219 225.257812 129.792969 219.835938 C 130.050781 216.878906 130.566406 213.523438 131.527344 210.046875 C 132.859375 205.046875 135.085938 199.8125 138.644531 195.234375 C 140.421875 192.910156 142.53125 190.773438 145.035156 188.898438 C 151.570312 184.039062 159.4375 181.269531 167.140625 178.285156 L 167.164062 178.285156 C 175.640625 175.023438 183.882812 171.574219 189.855469 164.90625 C 197.558594 156.316406 199.710938 143.191406 195.191406 132.605469 Z M 195.191406 132.605469 " fill-opacity="1" fill-rule="nonzero"/><path fill="#609000" d="M 183.648438 145.75 C 183.601562 152.511719 178.332031 158.214844 172.410156 161.433594 C 167.539062 164.085938 162.152344 165.515625 156.933594 167.417969 L 156.886719 167.300781 C 150.984375 166.527344 145.292969 163.261719 141.757812 158.40625 C 138.785156 154.273438 137.308594 149.273438 137.238281 144.179688 C 143.585938 152.042969 155.035156 161.714844 166.226562 149.039062 C 163.652344 149.53125 160.75 148.734375 158.921875 146.808594 C 156.183594 143.992188 155.832031 139.296875 157.75 135.84375 C 159.671875 132.417969 163.582031 130.304688 167.515625 130.164062 C 171.449219 130.023438 175.3125 131.691406 178.238281 134.320312 C 181.472656 137.207031 183.671875 141.410156 183.648438 145.75 Z M 183.648438 145.75 " fill-opacity="1" fill-rule="nonzero"/><path fill="#92c538" d="M 217.976562 205.304688 C 217.15625 204.414062 216.382812 203.523438 215.632812 202.582031 C 208.773438 194.0625 204.746094 183.332031 204.183594 172.441406 C 204.019531 169.648438 204.089844 166.878906 204.394531 164.109375 C 204.628906 161.972656 204.980469 159.859375 205.425781 157.792969 C 205.472656 157.558594 205.542969 157.324219 205.589844 157.089844 C 207.90625 147.113281 213.410156 138.6875 220.527344 131.480469 C 221.746094 130.257812 223.523438 128.285156 225.46875 128.945312 C 225.9375 129.109375 226.335938 129.460938 226.617188 129.859375 C 228.300781 132.347656 226.148438 135.539062 224.15625 137.066406 C 223.175781 137.816406 220.832031 141.246094 218.679688 146.246094 C 217.507812 148.992188 216.382812 152.207031 215.585938 155.703125 C 214.441406 160.773438 213.949219 166.433594 214.933594 172.136719 C 215.398438 175.023438 216.242188 177.886719 217.578125 180.726562 C 221.042969 188.097656 226.664062 194.296875 232.09375 200.539062 L 232.117188 200.5625 C 238.042969 207.441406 243.6875 214.390625 245.839844 223.074219 C 248.578125 234.296875 244.316406 246.878906 235.351562 254.085938 C 226.359375 261.292969 213.152344 262.699219 202.871094 257.582031 C 192.59375 252.441406 185.734375 241.011719 186.058594 229.53125 C 186.316406 219.882812 191.726562 210.304688 200.367188 206.082031 C 205.753906 203.453125 212.308594 203.285156 217.882812 205.398438 Z M 217.976562 205.304688 " fill-opacity="1" fill-rule="nonzero"/><path fill="#609000" d="M 245.839844 223.074219 C 243.6875 214.390625 238.042969 207.441406 232.117188 200.5625 L 232.09375 200.539062 C 226.664062 194.296875 221.042969 188.097656 217.578125 180.726562 C 216.242188 177.886719 215.398438 175.023438 214.933594 172.136719 C 213.949219 166.433594 214.441406 160.773438 215.585938 155.703125 C 216.382812 152.207031 217.507812 148.992188 218.679688 146.246094 C 220.832031 141.246094 223.175781 137.816406 224.15625 137.066406 C 226.148438 135.539062 228.300781 132.347656 226.617188 129.859375 C 226.507812 129.707031 226.367188 129.570312 226.226562 129.4375 C 221.082031 135.28125 215.523438 141.640625 212.625 148.90625 C 209.96875 155.570312 209.6875 163.175781 210.191406 170.25 C 210.585938 175.773438 211.527344 181.738281 214.015625 186.742188 C 216.230469 191.199219 219.359375 195.070312 222.550781 198.851562 C 229.488281 207.078125 237.246094 215.675781 237.761719 227.019531 C 238.046875 233.234375 236.023438 239.832031 232 244.585938 C 227.613281 249.765625 221.046875 251.984375 214.542969 252.980469 C 207.605469 254.042969 200.886719 253.472656 194.660156 251.421875 C 197.027344 253.925781 199.792969 256.042969 202.875 257.582031 C 213.152344 262.699219 226.359375 261.292969 235.351562 254.085938 C 244.316406 246.878906 248.578125 234.296875 245.839844 223.074219 Z M 245.839844 223.074219 " fill-opacity="1" fill-rule="nonzero"/><path fill="#609000" d="M 231.347656 237.042969 C 229.332031 240.894531 225.421875 243.546875 221.207031 244.554688 C 217.390625 245.492188 213.199219 245.140625 209.78125 243.144531 C 206.386719 241.175781 203.925781 237.464844 203.855469 233.523438 C 203.761719 229.601562 206.292969 225.609375 210.039062 224.414062 C 210.996094 224.109375 212.003906 223.992188 213.011719 224.085938 C 213.011719 224.085938 216.5 206.082031 191.351562 213.851562 C 193.695312 210.5625 196.738281 207.863281 200.367188 206.082031 C 205.753906 203.453125 212.308594 203.285156 217.882812 205.398438 L 217.976562 205.304688 C 221.652344 209.4375 225.75 213.261719 228.816406 217.910156 C 232.515625 223.546875 234.484375 231.058594 231.347656 237.042969 Z M 231.347656 237.042969 " fill-opacity="1" fill-rule="nonzero"/><path fill="#92c538" d="M 120.449219 186.714844 C 121.363281 189.367188 122.042969 192.066406 122.535156 194.789062 C 119.957031 191.644531 117.125 188.734375 114.035156 186.082031 C 116.164062 185.539062 118.460938 185.773438 120.449219 186.714844 Z M 120.449219 186.714844 " fill-opacity="1" fill-rule="nonzero"/><path fill="#92c538" d="M 256.425781 172.699219 C 260.5 178.5 261.292969 186.503906 258.203125 192.839844 C 255.136719 199.203125 248.160156 203.570312 241.109375 203.238281 C 237.949219 203.074219 234.929688 202.066406 232.117188 200.5625 L 232.09375 200.539062 C 226.664062 194.296875 221.042969 188.097656 217.578125 180.726562 C 216.242188 177.886719 215.398438 175.023438 214.933594 172.136719 C 216.921875 175.351562 219.613281 178.167969 222.332031 180.84375 C 226.078125 184.554688 229.941406 188.191406 234.367188 191.035156 C 237.058594 192.769531 240.125 194.226562 243.3125 194.085938 C 247.878906 193.875 251.789062 190.304688 253.730469 186.152344 C 255.675781 181.996094 256.050781 177.300781 256.425781 172.699219 Z M 256.425781 172.699219 " fill-opacity="1" fill-rule="nonzero"/><path fill="#92c538" d="M 222.050781 159.25 C 223.105469 161.691406 224.320312 164.085938 225.539062 166.433594 C 223.664062 165.375 220.339844 163.191406 217.625 159.25 C 216.78125 158.027344 216.125 156.832031 215.609375 155.703125 L 215.585938 155.703125 C 216.382812 152.207031 217.507812 148.992188 218.679688 146.246094 C 218.914062 148.40625 219.265625 150.234375 219.613281 151.691406 C 220.363281 155 221.324219 157.464844 222.050781 159.25 Z M 222.050781 159.25 " fill-opacity="1" fill-rule="nonzero"/><path fill="#bedc88" d="M 205.425781 157.792969 C 204.980469 159.859375 204.628906 161.972656 204.394531 164.109375 C 204.089844 166.878906 204.019531 169.648438 204.183594 172.441406 C 198.890625 178.5 190.390625 181.667969 182.453125 180.164062 C 191.960938 174.976562 199.96875 167.136719 205.425781 157.792969 Z M 205.425781 157.792969 " fill-opacity="1" fill-rule="nonzero"/><path fill="#92c538" d="M 176.367188 180.1875 C 182.734375 183.214844 186.832031 190.351562 186.550781 197.417969 C 186.292969 204.460938 181.824219 211.152344 175.523438 214.34375 C 177.351562 210.117188 179.222656 205.796875 179.457031 201.222656 C 179.691406 196.621094 177.933594 191.644531 174 189.296875 C 171.261719 187.652344 167.867188 187.488281 164.683594 187.746094 C 159.4375 188.167969 154.308594 189.554688 149.273438 191.058594 C 145.621094 192.136719 141.921875 193.332031 138.644531 195.234375 C 140.421875 192.910156 142.53125 190.773438 145.035156 188.898438 C 151.570312 184.039062 159.4375 181.269531 167.140625 178.285156 L 167.164062 178.285156 C 170.347656 178.285156 173.488281 178.828125 176.367188 180.1875 Z M 176.367188 180.1875 " fill-opacity="1" fill-rule="nonzero"/><path fill="#bedc88" d="M 156.347656 235.328125 C 155.902344 235.492188 155.574219 235.585938 155.410156 235.632812 C 153.792969 236.082031 151.570312 236.808594 149.765625 235.492188 C 148.152344 234.296875 147.308594 232.230469 147.378906 230.210938 C 147.425781 228.191406 148.316406 226.269531 149.601562 224.71875 C 152.179688 221.621094 156.488281 220 160.398438 220.941406 C 164.332031 221.855469 167.539062 225.398438 167.84375 229.414062 C 168.101562 232.839844 166.390625 236.152344 164.191406 238.804688 C 162.011719 241.457031 159.34375 243.6875 157.164062 246.363281 C 154.988281 249.015625 153.300781 252.324219 153.582031 255.773438 C 150.796875 251.949219 150.914062 246.785156 153.464844 242.816406 C 154.519531 241.175781 155.574219 240.679688 156.160156 238.875 C 156.582031 237.535156 156.511719 236.316406 156.394531 235.515625 Z M 156.347656 235.328125 " fill-opacity="1" fill-rule="nonzero"/><path fill="#bedc88" d="M 145.316406 205.28125 C 143.140625 206.785156 140.9375 208.308594 138.878906 209.976562 C 137.378906 211.199219 135.390625 212.910156 133.164062 215.46875 C 132.179688 216.597656 131.011719 218.050781 129.792969 219.835938 C 130.050781 216.878906 130.566406 213.523438 131.527344 210.046875 C 132.507812 209.296875 133.65625 208.546875 134.96875 207.863281 C 139.230469 205.679688 143.164062 205.328125 145.316406 205.28125 Z M 145.316406 205.28125 " fill-opacity="1" fill-rule="nonzero"/><path fill="#bedc88" d="M 129.300781 189.90625 C 127.871094 192.277344 126.609375 194.765625 125.578125 197.347656 C 124.804688 199.34375 124.101562 201.363281 123.519531 203.429688 L 123.519531 203.40625 C 123.402344 200.515625 123.074219 197.652344 122.558594 194.8125 L 122.535156 194.789062 C 122.042969 192.066406 121.363281 189.367188 120.449219 186.714844 C 118.859375 181.832031 116.609375 177.136719 113.777344 172.816406 C 121.480469 175.234375 127.523438 182.066406 129.300781 189.90625 Z M 129.300781 189.90625 " fill-opacity="1" fill-rule="nonzero"/><path fill="#486c00" d="M 167.566406 139.1875 C 167.066406 137.867188 166.898438 136.445312 167.058594 134.964844 C 167.300781 132.964844 168.199219 131.078125 169.59375 129.636719 L 171.277344 131.269531 C 170.234375 132.347656 169.5625 133.753906 169.382812 135.234375 C 169.265625 136.328125 169.390625 137.382812 169.753906 138.355469 Z M 167.566406 139.1875 " fill-opacity="1" fill-rule="nonzero"/><path fill="#486c00" d="M 172.175781 142.570312 L 170.804688 140.667969 C 173.300781 138.859375 175.09375 136.089844 175.722656 133.070312 L 178.015625 133.550781 C 177.269531 137.132812 175.140625 140.421875 172.175781 142.570312 Z M 172.175781 142.570312 " fill-opacity="1" fill-rule="nonzero"/><path fill="#486c00" d="M 181.570312 150.53125 C 181.492188 149.9375 181.222656 149.308594 180.800781 148.761719 C 180.273438 148.070312 179.511719 147.457031 178.480469 146.898438 C 176.414062 145.777344 173.992188 145.347656 171.652344 145.667969 L 171.332031 143.339844 C 174.148438 142.949219 177.089844 143.476562 179.59375 144.832031 C 180.921875 145.554688 181.921875 146.371094 182.660156 147.332031 C 183.335938 148.21875 183.761719 149.21875 183.890625 150.234375 Z M 181.570312 150.53125 " fill-opacity="1" fill-rule="nonzero"/><path fill="#486c00" d="M 178.953125 157.378906 C 176.738281 157.183594 174.5 156.234375 172.652344 154.707031 C 170.832031 153.171875 169.285156 151.078125 168.046875 148.472656 L 170.160156 147.464844 C 171.253906 149.761719 172.59375 151.59375 174.148438 152.902344 C 175.628906 154.125 177.410156 154.886719 179.160156 155.042969 Z M 178.953125 157.378906 " fill-opacity="1" fill-rule="nonzero"/><path fill="#486c00" d="M 165.453125 139.574219 C 163.109375 137.523438 161.660156 134.570312 161.480469 131.472656 L 163.816406 131.335938 C 163.957031 133.773438 165.144531 136.1875 166.992188 137.804688 Z M 165.453125 139.574219 " fill-opacity="1" fill-rule="nonzero"/><path fill="#486c00" d="M 156.613281 141.894531 C 156.238281 141.894531 155.863281 141.710938 155.636719 141.367188 C 155.28125 140.828125 155.425781 140.101562 155.96875 139.742188 C 156.859375 139.148438 158.316406 138.4375 160.203125 138.425781 C 160.9375 138.425781 161.71875 138.535156 162.464844 138.757812 C 163.082031 138.945312 163.433594 139.601562 163.246094 140.222656 C 163.058594 140.839844 162.402344 141.199219 161.785156 141.003906 C 161.269531 140.851562 160.855469 140.789062 160.214844 140.773438 C 158.910156 140.78125 157.886719 141.28125 157.261719 141.699219 C 157.0625 141.828125 156.839844 141.894531 156.613281 141.894531 Z M 156.613281 141.894531 " fill-opacity="1" fill-rule="nonzero"/><path fill="#486c00" d="M 160.894531 149.339844 C 160.539062 149.339844 160.1875 149.175781 159.957031 148.867188 C 159.570312 148.347656 159.675781 147.613281 160.191406 147.226562 C 161.78125 146.039062 163.019531 144.496094 163.777344 142.765625 C 164.039062 142.171875 164.730469 141.90625 165.320312 142.160156 C 165.910156 142.421875 166.179688 143.113281 165.921875 143.707031 C 165 145.808594 163.503906 147.675781 161.597656 149.105469 C 161.386719 149.261719 161.140625 149.339844 160.894531 149.339844 Z M 160.894531 149.339844 " fill-opacity="1" fill-rule="nonzero"/><path fill="#486c00" d="M 152.351562 167.199219 C 152.335938 167.199219 152.320312 167.199219 152.308594 167.199219 C 151.660156 167.175781 151.15625 166.628906 151.179688 165.984375 C 151.386719 160.5625 153.359375 155.207031 156.738281 150.894531 C 157.140625 150.378906 157.882812 150.300781 158.382812 150.695312 C 158.894531 151.09375 158.980469 151.832031 158.582031 152.339844 C 155.503906 156.269531 153.707031 161.144531 153.523438 166.070312 C 153.496094 166.703125 152.976562 167.199219 152.351562 167.199219 Z M 152.351562 167.199219 " fill-opacity="1" fill-rule="nonzero"/><path fill="#486c00" d="M 137.460938 146.371094 C 137.097656 146.371094 136.742188 146.207031 136.511719 145.886719 C 136.132812 145.363281 136.25 144.628906 136.773438 144.246094 C 141.328125 140.941406 146.832031 139.265625 152.296875 139.457031 C 152.945312 139.484375 153.445312 140.03125 153.421875 140.675781 C 153.398438 141.308594 152.878906 141.804688 152.25 141.804688 C 152.238281 141.804688 152.222656 141.804688 152.207031 141.804688 C 147.257812 141.597656 142.277344 143.152344 138.148438 146.148438 C 137.9375 146.300781 137.699219 146.371094 137.460938 146.371094 Z M 137.460938 146.371094 " fill-opacity="1" fill-rule="nonzero"/><path fill="#486c00" d="M 156.511719 132.789062 C 156.101562 132.789062 155.703125 132.570312 155.488281 132.183594 C 153.441406 128.480469 149.695312 125.710938 145.476562 124.78125 C 144.84375 124.640625 144.445312 124.015625 144.582031 123.382812 C 144.722656 122.75 145.34375 122.355469 145.980469 122.488281 C 150.847656 123.5625 155.167969 126.761719 157.539062 131.046875 C 157.851562 131.613281 157.648438 132.328125 157.082031 132.644531 C 156.902344 132.742188 156.707031 132.789062 156.511719 132.789062 Z M 156.511719 132.789062 " fill-opacity="1" fill-rule="nonzero"/><path fill="#486c00" d="M 165.0625 127.882812 C 164.632812 127.882812 164.21875 127.648438 164.011719 127.234375 C 163.296875 125.796875 162.125 122.8125 162.371094 118.984375 C 162.480469 117.226562 162.84375 115.550781 163.453125 114.007812 C 163.691406 113.402344 164.371094 113.101562 164.972656 113.34375 C 165.574219 113.582031 165.867188 114.265625 165.628906 114.867188 C 165.113281 116.183594 164.804688 117.617188 164.707031 119.132812 C 164.5 122.410156 165.496094 124.957031 166.109375 126.183594 C 166.394531 126.765625 166.164062 127.46875 165.585938 127.761719 C 165.417969 127.84375 165.238281 127.882812 165.0625 127.882812 Z M 165.0625 127.882812 " fill-opacity="1" fill-rule="nonzero"/><path fill="#486c00" d="M 177.304688 129.574219 C 176.679688 129.574219 176.160156 129.078125 176.136719 128.445312 C 176.03125 125.753906 176.871094 123.054688 178.496094 120.847656 C 179.4375 119.582031 180.660156 118.480469 182.039062 117.65625 C 182.585938 117.320312 183.308594 117.5 183.640625 118.058594 C 183.976562 118.617188 183.796875 119.335938 183.238281 119.667969 C 182.125 120.339844 181.132812 121.230469 180.375 122.246094 C 179.070312 124.019531 178.390625 126.191406 178.476562 128.355469 C 178.5 129.003906 177.996094 129.546875 177.351562 129.574219 C 177.335938 129.574219 177.320312 129.574219 177.304688 129.574219 Z M 177.304688 129.574219 " fill-opacity="1" fill-rule="nonzero"/><path fill="#486c00" d="M 186.25 137.976562 C 185.945312 137.976562 185.640625 137.859375 185.40625 137.617188 C 184.960938 137.152344 184.972656 136.40625 185.441406 135.957031 C 188.179688 133.3125 192.511719 132.367188 196.222656 133.617188 C 196.835938 133.824219 197.164062 134.488281 196.960938 135.101562 C 196.757812 135.71875 196.09375 136.0625 195.476562 135.839844 C 192.582031 134.871094 189.195312 135.589844 187.0625 137.648438 C 186.835938 137.867188 186.542969 137.976562 186.25 137.976562 Z M 186.25 137.976562 " fill-opacity="1" fill-rule="nonzero"/><path fill="#486c00" d="M 164.066406 162.644531 C 163.625 162.644531 163.199219 162.394531 163.003906 161.964844 C 162.351562 160.542969 161.980469 159.035156 161.90625 157.472656 C 161.832031 156.039062 162.011719 154.617188 162.441406 153.242188 C 162.636719 152.621094 163.289062 152.269531 163.90625 152.46875 C 164.523438 152.660156 164.867188 153.316406 164.675781 153.9375 C 164.332031 155.050781 164.183594 156.199219 164.242188 157.355469 C 164.304688 158.617188 164.605469 159.835938 165.128906 160.980469 C 165.398438 161.570312 165.144531 162.269531 164.554688 162.539062 C 164.398438 162.613281 164.230469 162.644531 164.066406 162.644531 Z M 164.066406 162.644531 " fill-opacity="1" fill-rule="nonzero"/><path fill="#486c00" d="M 147.359375 151.363281 C 147.078125 151.363281 146.796875 151.265625 146.574219 151.066406 C 146.09375 150.628906 146.054688 149.890625 146.484375 149.40625 C 148.121094 147.585938 150.035156 146.121094 152.175781 145.054688 C 152.75 144.765625 153.460938 145 153.746094 145.582031 C 154.035156 146.164062 153.800781 146.871094 153.21875 147.15625 C 151.34375 148.09375 149.664062 149.378906 148.226562 150.976562 C 147.996094 151.234375 147.679688 151.363281 147.359375 151.363281 Z M 147.359375 151.363281 " fill-opacity="1" fill-rule="nonzero"/><path fill="#486c00" d="M 144.136719 156.449219 C 143.988281 156.449219 143.832031 156.417969 143.683594 156.355469 C 143.089844 156.105469 142.808594 155.417969 143.058594 154.820312 C 143.277344 154.296875 143.519531 153.78125 143.785156 153.277344 C 144.089844 152.703125 144.804688 152.488281 145.367188 152.785156 C 145.941406 153.089844 146.160156 153.800781 145.855469 154.371094 C 145.625 154.816406 145.410156 155.265625 145.21875 155.726562 C 145.03125 156.175781 144.59375 156.449219 144.136719 156.449219 Z M 144.136719 156.449219 " fill-opacity="1" fill-rule="nonzero"/><path fill="#486c00" d="M 178.492188 167.378906 C 178.042969 167.378906 177.613281 167.117188 177.421875 166.679688 C 177.15625 166.085938 177.425781 165.390625 178.015625 165.132812 C 185.851562 161.65625 191.25 153.234375 191.144531 144.648438 C 191.136719 144.003906 191.652344 143.46875 192.300781 143.460938 C 193.015625 143.476562 193.476562 143.972656 193.484375 144.621094 C 193.601562 154.117188 187.628906 163.433594 178.964844 167.277344 C 178.8125 167.34375 178.648438 167.378906 178.492188 167.378906 Z M 178.492188 167.378906 " fill-opacity="1" fill-rule="nonzero"/><path fill="#486c00" d="M 170.261719 171.089844 C 169.820312 171.089844 169.398438 170.839844 169.199219 170.410156 C 168.925781 169.824219 169.183594 169.125 169.769531 168.855469 L 171.746094 167.929688 C 172.324219 167.65625 173.03125 167.90625 173.304688 168.496094 C 173.578125 169.085938 173.324219 169.78125 172.738281 170.058594 L 170.753906 170.980469 C 170.59375 171.058594 170.425781 171.089844 170.261719 171.089844 Z M 170.261719 171.089844 " fill-opacity="1" fill-rule="nonzero"/><path fill="#486c00" d="M 139.21875 188.042969 C 139.011719 188.042969 138.804688 187.984375 138.613281 187.871094 C 138.058594 187.535156 137.882812 186.816406 138.21875 186.261719 C 140.066406 183.191406 142.652344 180.59375 145.707031 178.75 C 146.253906 178.421875 146.980469 178.589844 147.3125 179.148438 C 147.648438 179.703125 147.472656 180.421875 146.917969 180.757812 C 144.1875 182.410156 141.875 184.730469 140.222656 187.476562 C 140 187.839844 139.613281 188.042969 139.21875 188.042969 Z M 139.21875 188.042969 " fill-opacity="1" fill-rule="nonzero"/><path fill="#486c00" d="M 176.71875 187.652344 C 176.394531 187.652344 176.074219 187.519531 175.84375 187.253906 C 174.460938 185.695312 172.253906 184.664062 169.628906 184.351562 C 167.15625 184.0625 164.570312 184.386719 162.074219 184.699219 C 161.445312 184.785156 160.847656 184.328125 160.765625 183.683594 C 160.6875 183.039062 161.140625 182.453125 161.78125 182.371094 C 164.417969 182.035156 167.132812 181.695312 169.902344 182.023438 C 173.101562 182.398438 175.832031 183.707031 177.59375 185.699219 C 178.023438 186.183594 177.976562 186.925781 177.492188 187.355469 C 177.273438 187.554688 176.996094 187.652344 176.71875 187.652344 Z M 176.71875 187.652344 " fill-opacity="1" fill-rule="nonzero"/><path fill="#486c00" d="M 211.378906 244.609375 C 210.828125 242.675781 210.921875 240.585938 211.640625 238.726562 C 212.203125 237.324219 213.023438 236.152344 214.082031 235.226562 L 215.617188 236.996094 C 214.84375 237.675781 214.234375 238.546875 213.816406 239.589844 C 213.289062 240.960938 213.21875 242.519531 213.628906 243.960938 Z M 211.378906 244.609375 " fill-opacity="1" fill-rule="nonzero"/><path fill="#486c00" d="M 220.644531 245.136719 L 218.398438 244.476562 C 219.265625 241.519531 218.984375 238.230469 217.632812 235.453125 L 219.738281 234.421875 C 221.34375 237.71875 221.675781 241.625 220.644531 245.136719 Z M 220.644531 245.136719 " fill-opacity="1" fill-rule="nonzero"/><path fill="#486c00" d="M 227.292969 235.933594 C 224.464844 235.933594 221.648438 235.015625 219.351562 233.339844 L 220.730469 231.441406 C 222.640625 232.835938 224.878906 233.582031 227.332031 233.585938 C 228.507812 233.574219 229.464844 233.394531 230.261719 233.035156 C 230.878906 232.753906 231.414062 232.328125 231.765625 231.832031 L 233.671875 233.199219 C 233.074219 234.035156 232.230469 234.714844 231.226562 235.175781 C 230.125 235.671875 228.859375 235.917969 227.351562 235.933594 C 227.332031 235.933594 227.3125 235.933594 227.292969 235.933594 Z M 227.292969 235.933594 " fill-opacity="1" fill-rule="nonzero"/><path fill="#486c00" d="M 220.261719 229.152344 L 218.871094 227.265625 C 221.1875 225.550781 223.535156 224.4375 225.851562 223.945312 C 228.207031 223.464844 230.628906 223.683594 232.679688 224.5625 L 231.757812 226.722656 C 230.140625 226.027344 228.210938 225.859375 226.324219 226.246094 C 224.347656 226.664062 222.304688 227.640625 220.261719 229.152344 Z M 220.261719 229.152344 " fill-opacity="1" fill-rule="nonzero"/><path fill="#486c00" d="M 207.082031 240.378906 L 205.085938 239.15625 C 206.703125 236.507812 209.367188 234.589844 212.398438 233.890625 L 212.921875 236.175781 C 210.535156 236.726562 208.351562 238.296875 207.082031 240.378906 Z M 207.082031 240.378906 " fill-opacity="1" fill-rule="nonzero"/><path fill="#486c00" d="M 209.609375 233.214844 C 209.535156 233.214844 209.457031 233.207031 209.386719 233.195312 C 208.625 233.046875 207.902344 232.785156 207.230469 232.417969 C 205.5625 231.515625 204.609375 230.199219 204.109375 229.253906 C 203.804688 228.683594 204.019531 227.96875 204.589844 227.664062 C 205.160156 227.359375 205.867188 227.574219 206.175781 228.148438 C 206.464844 228.691406 207.125 229.695312 208.34375 230.355469 C 208.808594 230.609375 209.308594 230.789062 209.828125 230.886719 C 210.464844 231.011719 210.878906 231.628906 210.757812 232.265625 C 210.648438 232.824219 210.160156 233.214844 209.609375 233.214844 Z M 209.609375 233.214844 " fill-opacity="1" fill-rule="nonzero"/><path fill="#486c00" d="M 213.589844 231.546875 C 213.5625 231.546875 213.527344 231.546875 213.5 231.542969 C 212.855469 231.492188 212.371094 230.929688 212.421875 230.28125 C 212.5625 228.394531 212.195312 226.453125 211.355469 224.65625 C 211.078125 224.070312 211.335938 223.371094 211.917969 223.09375 C 212.507812 222.828125 213.199219 223.070312 213.472656 223.65625 C 214.488281 225.820312 214.929688 228.171875 214.757812 230.460938 C 214.710938 231.078125 214.195312 231.546875 213.589844 231.546875 Z M 213.589844 231.546875 " fill-opacity="1" fill-rule="nonzero"/><path fill="#486c00" d="M 211.183594 220.761719 C 210.628906 220.761719 210.136719 220.359375 210.035156 219.789062 C 209.082031 214.390625 209.859375 208.730469 212.226562 203.851562 C 212.511719 203.265625 213.21875 203.023438 213.792969 203.3125 C 214.371094 203.59375 214.613281 204.296875 214.332031 204.878906 C 212.179688 209.316406 211.472656 214.464844 212.339844 219.382812 C 212.453125 220.019531 212.027344 220.628906 211.390625 220.742188 C 211.324219 220.757812 211.253906 220.761719 211.183594 220.761719 Z M 211.183594 220.761719 " fill-opacity="1" fill-rule="nonzero"/><path fill="#486c00" d="M 201.253906 227.890625 C 201.082031 227.890625 200.90625 227.855469 200.742188 227.777344 C 195.824219 225.386719 191.765625 221.28125 189.304688 216.214844 C 189.019531 215.632812 189.261719 214.929688 189.84375 214.648438 C 190.417969 214.363281 191.128906 214.605469 191.410156 215.1875 C 193.640625 219.785156 197.320312 223.503906 201.761719 225.660156 C 202.34375 225.945312 202.585938 226.648438 202.304688 227.230469 C 202.101562 227.648438 201.6875 227.890625 201.253906 227.890625 Z M 201.253906 227.890625 " fill-opacity="1" fill-rule="nonzero"/><path fill="#486c00" d="M 191.949219 240.40625 C 190.347656 240.40625 188.742188 240.191406 187.1875 239.753906 C 186.566406 239.578125 186.207031 238.933594 186.378906 238.304688 C 186.554688 237.683594 187.195312 237.320312 187.824219 237.496094 C 191.980469 238.667969 196.585938 237.996094 200.136719 235.699219 C 200.679688 235.347656 201.402344 235.503906 201.753906 236.046875 C 202.105469 236.589844 201.949219 237.320312 201.40625 237.667969 C 198.632812 239.46875 195.300781 240.40625 191.949219 240.40625 Z M 191.949219 240.40625 " fill-opacity="1" fill-rule="nonzero"/><path fill="#486c00" d="M 199.78125 256.800781 C 199.734375 256.800781 199.6875 256.800781 199.640625 256.792969 C 199 256.71875 198.539062 256.136719 198.613281 255.492188 C 198.800781 253.84375 199.269531 252.195312 200 250.589844 C 201.578125 247.101562 204.015625 245.019531 205.328125 244.089844 C 205.851562 243.722656 206.582031 243.839844 206.960938 244.371094 C 207.332031 244.898438 207.207031 245.632812 206.679688 246.007812 C 205.5625 246.800781 203.484375 248.578125 202.128906 251.5625 C 201.5 252.945312 201.101562 254.355469 200.941406 255.761719 C 200.871094 256.363281 200.363281 256.800781 199.78125 256.800781 Z M 199.78125 256.800781 " fill-opacity="1" fill-rule="nonzero"/><path fill="#486c00" d="M 217.722656 261.628906 C 217.324219 261.628906 216.9375 261.421875 216.71875 261.054688 C 215.890625 259.671875 215.332031 258.121094 215.097656 256.570312 C 214.703125 253.851562 215.234375 251.078125 216.589844 248.753906 C 216.914062 248.191406 217.636719 248.003906 218.191406 248.332031 C 218.75 248.660156 218.9375 249.375 218.609375 249.9375 C 217.523438 251.804688 217.097656 254.039062 217.414062 256.226562 C 217.601562 257.472656 218.054688 258.726562 218.726562 259.851562 C 219.0625 260.40625 218.878906 261.128906 218.324219 261.460938 C 218.136719 261.574219 217.929688 261.628906 217.722656 261.628906 Z M 217.722656 261.628906 " fill-opacity="1" fill-rule="nonzero"/><path fill="#486c00" d="M 236.933594 253.699219 C 236.867188 253.699219 236.804688 253.695312 236.738281 253.683594 C 232.878906 253.03125 229.5 250.152344 228.328125 246.519531 C 228.128906 245.902344 228.464844 245.242188 229.078125 245.042969 C 229.707031 244.839844 230.355469 245.179688 230.554688 245.796875 C 231.464844 248.617188 234.105469 250.855469 237.125 251.367188 C 237.761719 251.476562 238.191406 252.082031 238.085938 252.722656 C 237.988281 253.292969 237.492188 253.699219 236.933594 253.699219 Z M 236.933594 253.699219 " fill-opacity="1" fill-rule="nonzero"/><path fill="#486c00" d="M 217.316406 221.804688 C 217.246094 221.804688 217.171875 221.800781 217.097656 221.785156 C 216.464844 221.664062 216.042969 221.050781 216.164062 220.414062 C 216.433594 219.003906 216.941406 217.660156 217.683594 216.421875 C 218.484375 215.085938 219.519531 213.929688 220.761719 212.980469 C 221.277344 212.59375 222.011719 212.695312 222.402344 213.207031 C 222.792969 213.726562 222.695312 214.460938 222.179688 214.851562 C 221.171875 215.617188 220.335938 216.550781 219.691406 217.632812 C 219.09375 218.632812 218.679688 219.714844 218.464844 220.851562 C 218.359375 221.414062 217.871094 221.804688 217.316406 221.804688 Z M 217.316406 221.804688 " fill-opacity="1" fill-rule="nonzero"/><path fill="#486c00" d="M 204.21875 223.273438 C 203.855469 223.273438 203.496094 223.101562 203.265625 222.78125 C 201.878906 220.824219 200.878906 218.628906 200.292969 216.257812 C 200.136719 215.625 200.523438 214.992188 201.148438 214.835938 C 201.796875 214.679688 202.414062 215.0625 202.566406 215.691406 C 203.074219 217.75 203.976562 219.730469 205.171875 221.417969 C 205.546875 221.945312 205.425781 222.679688 204.898438 223.054688 C 204.695312 223.203125 204.457031 223.273438 204.21875 223.273438 Z M 204.21875 223.273438 " fill-opacity="1" fill-rule="nonzero"/><path fill="#486c00" d="M 200.902344 212.742188 C 200.898438 212.742188 200.898438 212.742188 200.898438 212.742188 C 200.25 212.742188 199.730469 212.214844 199.730469 211.566406 C 199.734375 210.996094 199.761719 210.425781 199.816406 209.851562 C 199.882812 209.210938 200.441406 208.773438 201.097656 208.800781 C 201.742188 208.867188 202.210938 209.441406 202.148438 210.085938 C 202.097656 210.582031 202.074219 211.078125 202.074219 211.574219 C 202.070312 212.222656 201.546875 212.742188 200.902344 212.742188 Z M 200.902344 212.742188 " fill-opacity="1" fill-rule="nonzero"/><path fill="#486c00" d="M 238.46875 243.289062 C 238.277344 243.289062 238.082031 243.246094 237.902344 243.144531 C 237.335938 242.832031 237.128906 242.117188 237.441406 241.550781 C 241.570312 234.027344 240.769531 224.046875 235.496094 217.28125 C 235.09375 216.773438 235.1875 216.035156 235.695312 215.636719 C 236.199219 215.234375 236.9375 215.324219 237.339844 215.839844 C 243.171875 223.320312 244.0625 234.363281 239.496094 242.683594 C 239.28125 243.070312 238.878906 243.289062 238.46875 243.289062 Z M 238.46875 243.289062 " fill-opacity="1" fill-rule="nonzero"/><path fill="#486c00" d="M 232.21875 212.324219 C 231.867188 212.324219 231.515625 212.164062 231.285156 211.855469 L 229.972656 210.109375 C 229.582031 209.589844 229.683594 208.855469 230.199219 208.464844 C 230.71875 208.074219 231.453125 208.171875 231.839844 208.691406 L 233.15625 210.445312 C 233.542969 210.960938 233.441406 211.699219 232.925781 212.089844 C 232.714844 212.246094 232.46875 212.324219 232.21875 212.324219 Z M 232.21875 212.324219 " fill-opacity="1" fill-rule="nonzero"/><path fill="#486c00" d="M 214.40625 190.582031 C 214.007812 190.582031 213.621094 190.378906 213.402344 190.007812 C 211.578125 186.933594 210.511719 183.414062 210.332031 179.839844 C 210.296875 179.195312 210.792969 178.644531 211.4375 178.609375 C 212.152344 178.542969 212.632812 179.074219 212.667969 179.722656 C 212.832031 182.914062 213.78125 186.058594 215.414062 188.808594 C 215.746094 189.363281 215.5625 190.085938 215.007812 190.417969 C 214.820312 190.527344 214.613281 190.582031 214.40625 190.582031 Z M 214.40625 190.582031 " fill-opacity="1" fill-rule="nonzero"/><path fill="#486c00" d="M 241.273438 199.550781 C 239.664062 199.550781 237.96875 199.214844 236.28125 198.550781 C 233.699219 197.539062 231.453125 195.949219 229.28125 194.40625 C 228.753906 194.035156 228.628906 193.300781 229.003906 192.769531 C 229.378906 192.242188 230.113281 192.117188 230.636719 192.492188 C 232.691406 193.949219 234.816406 195.457031 237.132812 196.363281 C 239.59375 197.335938 242.027344 197.472656 243.980469 196.746094 C 244.589844 196.515625 245.257812 196.832031 245.484375 197.4375 C 245.707031 198.046875 245.398438 198.722656 244.792969 198.945312 C 243.703125 199.351562 242.515625 199.550781 241.273438 199.550781 Z M 241.273438 199.550781 " fill-opacity="1" fill-rule="nonzero"/><g clip-path="url(#c57bb0a4b6)"><path fill="#486c00" d="M 112.84375 172.105469 C 112.546875 172.503906 112.53125 173.042969 112.800781 173.457031 C 115.15625 177.046875 117.078125 180.886719 118.585938 184.886719 C 116.988281 184.542969 115.335938 184.535156 113.75 184.941406 C 113.328125 185.046875 113 185.382812 112.898438 185.808594 C 112.800781 186.234375 112.945312 186.683594 113.277344 186.96875 C 116.191406 189.46875 118.921875 192.273438 121.480469 195.355469 C 121.945312 197.980469 122.234375 200.644531 122.34375 203.332031 C 122.300781 203.484375 122.246094 203.636719 122.207031 203.789062 C 119.738281 213.046875 120.128906 223.234375 123.367188 234.066406 L 123.460938 234.386719 C 123.96875 236.125 124.824219 239.03125 127.453125 239.457031 C 127.613281 239.484375 127.78125 239.5 127.945312 239.5 C 128.507812 239.5 129.085938 239.351562 129.625 239.070312 C 132.691406 237.464844 132.816406 233.222656 131.375 230.042969 C 130.960938 229.128906 130.578125 225.273438 131.003906 220.164062 C 131.957031 218.792969 132.976562 217.472656 134.050781 216.234375 C 136.203125 213.761719 138.160156 212.078125 139.617188 210.886719 C 141.671875 209.226562 143.863281 207.710938 145.984375 206.246094 C 146.410156 205.949219 146.59375 205.410156 146.433594 204.917969 C 146.277344 204.421875 145.738281 204.121094 145.296875 204.105469 C 141.433594 204.191406 137.78125 205.105469 134.429688 206.820312 C 134.160156 206.960938 133.90625 207.121094 133.644531 207.273438 C 134.964844 203.425781 136.882812 199.574219 139.527344 196.09375 C 142.714844 194.304688 146.390625 193.128906 149.613281 192.179688 C 154.144531 190.824219 159.425781 189.34375 164.78125 188.914062 C 168.585938 188.605469 171.308594 189.046875 173.40625 190.300781 C 176.613281 192.214844 178.53125 196.476562 178.292969 201.160156 C 178.070312 205.511719 176.238281 209.746094 174.453125 213.871094 C 174.257812 214.324219 174.367188 214.855469 174.726562 215.195312 C 174.945312 215.402344 175.234375 215.511719 175.527344 215.511719 C 175.707031 215.511719 175.886719 215.472656 176.054688 215.386719 C 182.765625 211.984375 187.457031 204.777344 187.726562 197.460938 C 188.027344 189.847656 183.566406 182.308594 176.871094 179.125 C 175.394531 178.429688 173.800781 177.917969 172.101562 177.582031 C 179.011719 174.738281 185.679688 171.316406 190.730469 165.679688 C 198.769531 156.71875 200.992188 143.234375 196.265625 132.132812 C 191.523438 121.058594 180.25 113.371094 168.21875 113 C 156.265625 112.699219 144.40625 119.84375 139.128906 130.457031 C 134.488281 139.757812 135.167969 151.269531 140.816406 159.09375 C 143.742188 163.140625 148.152344 166.191406 153.042969 167.667969 C 143.535156 171.726562 135.414062 178.582031 129.691406 187.121094 C 127.1875 179.867188 121.320312 173.949219 114.128906 171.691406 C 113.660156 171.550781 113.144531 171.710938 112.84375 172.105469 Z M 116.804688 186.976562 C 117.746094 187.023438 118.675781 187.265625 119.5625 187.628906 C 119.875 188.601562 120.140625 189.589844 120.402344 190.574219 C 119.242188 189.332031 118.042969 188.125 116.804688 186.976562 Z M 135.503906 208.90625 C 137.203125 208.035156 138.996094 207.390625 140.859375 206.984375 C 139.945312 207.648438 139.035156 208.339844 138.140625 209.0625 C 136.609375 210.3125 134.554688 212.085938 132.285156 214.691406 C 132.046875 214.96875 131.820312 215.265625 131.585938 215.546875 C 131.847656 213.984375 132.171875 212.375 132.605469 210.722656 C 133.519531 210.054688 134.488281 209.4375 135.503906 208.90625 Z M 175.871094 181.246094 C 181.738281 184.035156 185.652344 190.667969 185.386719 197.371094 C 185.191406 202.679688 182.363281 207.925781 178.074219 211.316406 C 179.371094 208.105469 180.449219 204.78125 180.628906 201.277344 C 180.914062 195.738281 178.546875 190.636719 174.605469 188.285156 C 172.078125 186.765625 168.902344 186.21875 164.59375 186.574219 C 159.015625 187.019531 153.589844 188.539062 148.945312 189.929688 C 147.242188 190.429688 145.414062 190.992188 143.578125 191.675781 C 144.273438 191.046875 144.96875 190.417969 145.738281 189.839844 C 151.578125 185.484375 158.707031 182.765625 165.601562 180.132812 C 166.179688 179.910156 166.761719 179.6875 167.339844 179.464844 C 170.53125 179.484375 173.402344 180.082031 175.871094 181.246094 Z M 154.035156 169.796875 C 156.480469 168.757812 159.066406 167.890625 161.570312 167.046875 C 165.386719 165.765625 169.332031 164.441406 172.96875 162.460938 C 178.65625 159.363281 184.757812 153.351562 184.8125 145.761719 C 184.847656 141.324219 182.6875 136.722656 179.027344 133.449219 C 175.84375 130.597656 171.839844 128.988281 167.96875 128.988281 C 167.800781 128.988281 167.632812 128.992188 167.46875 129 C 162.988281 129.160156 158.769531 131.621094 156.726562 135.273438 C 154.472656 139.292969 155.039062 144.492188 158.070312 147.636719 C 161.304688 150.980469 167.039062 151.289062 170.347656 148.28125 C 172.597656 146.238281 173.382812 142.953125 172.21875 140.472656 C 171.542969 139.03125 170.148438 137.949219 168.492188 137.574219 C 167.003906 137.238281 165.554688 137.554688 164.488281 138.433594 C 163.988281 138.847656 163.917969 139.585938 164.328125 140.085938 C 164.742188 140.582031 165.476562 140.65625 165.976562 140.246094 C 166.660156 139.675781 167.527344 139.765625 167.980469 139.863281 C 168.921875 140.078125 169.734375 140.695312 170.101562 141.472656 C 170.824219 143.015625 170.257812 145.195312 168.773438 146.542969 C 166.40625 148.695312 162.101562 148.4375 159.753906 146.003906 C 157.460938 143.628906 157.039062 139.507812 158.765625 136.421875 C 160.421875 133.46875 163.871094 131.476562 167.550781 131.34375 C 171.046875 131.183594 174.59375 132.625 177.46875 135.199219 C 180.632812 138.03125 182.5 141.96875 182.472656 145.742188 C 182.425781 152.3125 176.953125 157.621094 171.851562 160.398438 C 168.394531 162.277344 164.550781 163.570312 160.828125 164.820312 C 159.570312 165.242188 158.289062 165.675781 157.011719 166.128906 C 151.324219 165.378906 145.980469 162.234375 142.714844 157.71875 C 137.5625 150.582031 136.964844 140.046875 141.222656 131.507812 C 146.113281 121.679688 157.21875 115.015625 168.148438 115.347656 C 179.117188 115.683594 189.792969 122.96875 194.113281 133.058594 C 198.421875 143.175781 196.3125 155.945312 188.988281 164.113281 C 182.738281 171.082031 174.011719 174.414062 164.769531 177.9375 C 157.726562 180.628906 150.441406 183.40625 144.339844 187.957031 C 127.171875 200.800781 127.425781 227.007812 129.242188 231.015625 C 130.09375 232.898438 130.441406 235.992188 128.539062 236.988281 C 128.292969 237.117188 128.023438 237.164062 127.828125 237.140625 C 126.652344 236.949219 126.109375 235.085938 125.707031 233.722656 L 125.609375 233.394531 C 122.496094 222.980469 122.113281 213.226562 124.46875 204.394531 C 125.054688 202.199219 125.796875 199.972656 126.675781 197.773438 C 131.679688 185.257812 141.648438 175.058594 154.035156 169.796875 Z M 128.058594 189.800781 C 126.71875 192.082031 125.488281 194.429688 124.503906 196.902344 C 124.390625 197.183594 124.300781 197.46875 124.191406 197.753906 C 123.15625 189.8125 120.617188 182.164062 116.660156 175.261719 C 122.234375 178.140625 126.519531 183.535156 128.058594 189.800781 Z M 128.058594 189.800781 " fill-opacity="1" fill-rule="nonzero"/></g><path fill="#486c00" d="M 256.125 171.59375 C 255.648438 171.722656 255.304688 172.15625 255.261719 172.648438 C 254.902344 177.097656 254.523438 181.695312 252.675781 185.640625 C 250.683594 189.882812 246.988281 192.734375 243.257812 192.90625 C 240.839844 193.011719 238.203125 192.121094 235 190.054688 C 230.492188 187.152344 226.523438 183.347656 223.15625 180.007812 C 220.765625 177.648438 218.078125 174.875 216.105469 171.78125 C 215.410156 167.464844 215.523438 163.164062 216.171875 159.148438 C 216.335938 159.40625 216.484375 159.675781 216.660156 159.929688 C 218.804688 163.023438 221.597656 165.554688 224.960938 167.453125 C 225.136719 167.550781 225.335938 167.601562 225.535156 167.601562 C 225.828125 167.601562 226.125 167.492188 226.347656 167.273438 C 226.71875 166.914062 226.8125 166.351562 226.574219 165.890625 C 225.453125 163.710938 224.175781 161.242188 223.140625 158.789062 C 222.414062 157.054688 221.484375 154.652344 220.746094 151.4375 C 220.375 149.828125 220.097656 148.179688 219.902344 146.53125 C 221.933594 141.824219 224.082031 138.605469 224.875 137.996094 C 227.640625 135.875 229.527344 132.074219 227.578125 129.207031 C 227.128906 128.546875 226.527344 128.074219 225.84375 127.835938 C 223.328125 126.984375 221.203125 129.132812 219.941406 130.425781 L 219.707031 130.660156 C 211.757812 138.6875 206.621094 147.488281 204.445312 156.824219 C 204.410156 156.976562 204.386719 157.136719 204.351562 157.289062 C 198.9375 166.515625 191.175781 174.066406 181.890625 179.125 C 181.457031 179.363281 181.21875 179.847656 181.296875 180.339844 C 181.375 180.832031 181.746094 181.21875 182.234375 181.3125 C 183.628906 181.578125 185.039062 181.707031 186.457031 181.707031 C 192.542969 181.707031 198.644531 179.320312 203.207031 175.109375 C 204.242188 185.324219 208.195312 195.1875 214.664062 203.246094 C 209.65625 202.238281 204.328125 202.847656 199.847656 205.03125 C 191.183594 209.265625 185.171875 219.097656 184.890625 229.492188 C 184.5625 241.347656 191.738281 253.335938 202.347656 258.632812 C 206.683594 260.789062 211.464844 261.839844 216.246094 261.839844 C 223.355469 261.839844 230.460938 259.511719 236.078125 255.007812 C 245.464844 247.453125 249.839844 234.511719 246.964844 222.804688 C 245.160156 215.449219 240.890625 209.285156 236.136719 203.511719 C 237.789062 204.015625 239.4375 204.320312 241.0625 204.402344 C 241.335938 204.417969 241.605469 204.421875 241.878906 204.421875 C 249.007812 204.421875 256.066406 199.96875 259.253906 193.363281 C 262.460938 186.777344 261.710938 178.207031 257.390625 172.035156 C 257.109375 171.628906 256.605469 171.46875 256.125 171.59375 Z M 218.464844 151.964844 C 219.242188 155.355469 220.21875 157.878906 220.984375 159.703125 C 221.425781 160.753906 221.90625 161.796875 222.402344 162.816406 C 220.949219 161.574219 219.671875 160.164062 218.585938 158.59375 C 217.9375 157.652344 217.375 156.644531 216.878906 155.613281 C 217.269531 153.953125 217.742188 152.378906 218.246094 150.878906 C 218.320312 151.238281 218.382812 151.605469 218.464844 151.964844 Z M 186.144531 179.355469 C 192.863281 175.148438 198.6875 169.609375 203.363281 163.050781 C 203.324219 163.363281 203.269531 163.664062 203.234375 163.976562 C 202.941406 166.644531 202.859375 169.320312 202.972656 171.984375 C 198.675781 176.746094 192.449219 179.515625 186.144531 179.355469 Z M 234.613281 253.175781 C 226.058594 260.039062 213.21875 261.417969 203.386719 256.53125 C 193.570312 251.625 186.925781 240.53125 187.234375 229.554688 C 187.492188 220.011719 192.972656 211.003906 200.871094 207.140625 C 203.632812 205.796875 206.753906 205.117188 209.894531 205.117188 C 212.453125 205.117188 215.027344 205.566406 217.4375 206.476562 C 218.347656 207.484375 219.277344 208.464844 220.1875 209.433594 C 222.882812 212.292969 225.667969 215.253906 227.832031 218.546875 C 231.027344 223.40625 233.355469 230.671875 230.308594 236.492188 C 228.558594 239.828125 225.058594 242.421875 220.9375 243.421875 C 217.191406 244.332031 213.339844 243.867188 210.378906 242.140625 C 207.195312 240.28125 205.089844 236.890625 205.019531 233.507812 C 204.945312 229.96875 207.257812 226.539062 210.394531 225.523438 C 213.609375 224.496094 217.523438 226.292969 218.605469 229.3125 C 219.277344 231.199219 218.757812 233.390625 217.390625 234.40625 C 216.703125 234.921875 215.691406 235.085938 214.761719 234.824219 C 214.316406 234.699219 213.515625 234.367188 213.179688 233.546875 C 212.933594 232.945312 212.246094 232.664062 211.652344 232.902344 C 211.054688 233.152344 210.765625 233.835938 211.011719 234.433594 C 211.535156 235.714844 212.675781 236.679688 214.136719 237.085938 C 215.773438 237.539062 217.511719 237.242188 218.789062 236.292969 C 220.984375 234.65625 221.832031 231.386719 220.808594 228.519531 C 219.304688 224.308594 214.109375 221.855469 209.679688 223.292969 C 205.527344 224.628906 202.582031 228.945312 202.679688 233.554688 C 202.765625 237.742188 205.328125 241.90625 209.203125 244.167969 C 212.683594 246.195312 217.164062 246.75 221.492188 245.707031 C 226.253906 244.546875 230.324219 241.507812 232.378906 237.582031 C 235.898438 230.859375 233.347656 222.675781 229.789062 217.253906 C 227.511719 213.792969 224.652344 210.757812 221.890625 207.820312 C 220.078125 205.898438 218.203125 203.910156 216.535156 201.835938 C 208.089844 191.34375 204.089844 177.636719 205.5625 164.234375 C 205.824219 161.875 206.214844 159.558594 206.726562 157.355469 C 208.800781 148.453125 213.730469 140.027344 221.367188 132.316406 L 221.609375 132.070312 C 222.601562 131.054688 223.972656 129.664062 225.082031 130.058594 C 225.285156 130.125 225.484375 130.296875 225.644531 130.53125 C 226.851562 132.304688 225.089844 134.875 223.453125 136.132812 C 219.96875 138.808594 207.417969 161.796875 216.523438 181.238281 C 219.765625 188.136719 224.882812 194.027344 229.835938 199.730469 C 236.328125 207.207031 242.460938 214.265625 244.695312 223.363281 C 247.3125 234.03125 243.167969 246.292969 234.613281 253.175781 Z M 257.148438 192.335938 C 254.238281 198.367188 247.664062 202.390625 241.179688 202.058594 C 238.464844 201.921875 235.664062 201.09375 232.820312 199.597656 C 232.414062 199.128906 232.007812 198.65625 231.601562 198.1875 C 226.753906 192.609375 221.746094 186.839844 218.640625 180.242188 C 218.234375 179.367188 217.917969 178.484375 217.597656 177.597656 C 218.898438 179.070312 220.246094 180.429688 221.511719 181.675781 C 224.960938 185.101562 229.039062 189.007812 233.734375 192.03125 C 237.367188 194.371094 240.433594 195.386719 243.371094 195.25 C 247.953125 195.039062 252.4375 191.660156 254.792969 186.640625 C 256.285156 183.46875 256.890625 180.03125 257.261719 176.578125 C 259.449219 181.59375 259.476562 187.558594 257.148438 192.335938 Z M 257.148438 192.335938 " fill-opacity="1" fill-rule="nonzero"/><path fill="#486c00" d="M 161.542969 243.371094 C 162.742188 242.160156 163.988281 240.910156 165.101562 239.550781 C 167.90625 236.132812 169.261719 232.597656 169.015625 229.324219 C 168.679688 224.855469 165.171875 220.84375 160.675781 219.789062 C 156.429688 218.78125 151.609375 220.464844 148.699219 223.96875 C 147.148438 225.839844 146.261719 228.042969 146.199219 230.175781 C 146.125 232.675781 147.230469 235.074219 149.082031 236.4375 C 151.097656 237.921875 153.453125 237.398438 155.3125 236.878906 C 155.300781 237.453125 155.210938 238 155.046875 238.519531 C 154.765625 239.394531 154.351562 239.859375 153.78125 240.503906 C 153.382812 240.953125 152.929688 241.464844 152.472656 242.179688 C 149.597656 246.675781 149.667969 252.414062 152.648438 256.460938 C 152.875 256.769531 153.226562 256.9375 153.589844 256.9375 C 153.730469 256.9375 153.871094 256.910156 154.003906 256.863281 C 154.496094 256.675781 154.804688 256.183594 154.757812 255.664062 C 154.46875 252.296875 156.398438 249.144531 158.074219 247.09375 C 159.132812 245.792969 160.355469 244.5625 161.542969 243.371094 Z M 152.9375 251.519531 C 152.355469 248.867188 152.855469 245.929688 154.445312 243.445312 C 154.8125 242.871094 155.183594 242.457031 155.53125 242.0625 C 156.175781 241.335938 156.84375 240.582031 157.273438 239.238281 C 157.59375 238.253906 157.710938 237.203125 157.632812 236.109375 C 159.960938 235.171875 162.878906 233.402344 163.046875 230.417969 C 163.175781 228.125 161.625 225.351562 159.113281 224.878906 C 156.417969 224.378906 153.648438 226.5625 153.019531 229.644531 C 152.886719 230.277344 153.296875 230.898438 153.929688 231.027344 C 154.550781 231.167969 155.183594 230.753906 155.308594 230.117188 C 155.726562 228.097656 157.410156 226.949219 158.683594 227.1875 C 159.910156 227.417969 160.777344 229.042969 160.710938 230.285156 C 160.597656 232.257812 157.730469 233.757812 155.082031 234.503906 L 154.855469 234.566406 C 153.382812 234.992188 151.710938 235.460938 150.46875 234.546875 C 149.226562 233.632812 148.488281 231.984375 148.539062 230.246094 C 148.585938 228.636719 149.28125 226.9375 150.5 225.46875 C 152.855469 222.636719 156.730469 221.269531 160.140625 222.074219 C 163.609375 222.890625 166.421875 226.082031 166.679688 229.503906 C 166.933594 232.859375 164.980469 236.007812 163.296875 238.058594 C 162.25 239.332031 161.046875 240.542969 159.882812 241.714844 C 158.660156 242.945312 157.394531 244.21875 156.261719 245.609375 C 155.027344 247.121094 153.671875 249.164062 152.9375 251.519531 Z M 152.9375 251.519531 " fill-opacity="1" fill-rule="nonzero"/></svg>